<svg id="Groupe_124" data-name="Groupe 124" xmlns="http://www.w3.org/2000/svg" xmlns:xlink="http://www.w3.org/1999/xlink" width="367.169" height="501.542" viewBox="0 0 367.169 501.542">
  <defs>
    <clipPath id="clip-path">
      <rect id="Rectangle_117" data-name="Rectangle 117" width="367.169" height="501.542" fill="none"/>
    </clipPath>
  </defs>
  <g id="Groupe_123" data-name="Groupe 123" clip-path="url(#clip-path)">
    <path id="Tracé_1016" data-name="Tracé 1016" d="M61.275,444.694c-8.317-14.469-8.755-32.55-.165-47.007,4.22-7.147,11.225-12.37,18.752-15.673a66.744,66.744,0,0,1,23.948-5.359c-8.8,2.2-17.723,4.429-25.784,8.574-14.459,7.27-23.411,19.21-21.6,35.9a85.719,85.719,0,0,0,5.027,23.476c.053.1-.124.2-.179.089" fill="#f6ebd8"/>
    <path id="Tracé_1017" data-name="Tracé 1017" d="M62.578,416.8c-3.063,33.047,5.384,72.643,42.137,81.672,10.9,2.8,22.413,2.658,33.581,1.126,17.889.766,35.953-3.818,51.853-11.892,50.158-25.051,67.716-84.177,70.961-136.467,0-.124.211-.116.2.01a269.84,269.84,0,0,1-2.082,26.955,211.646,211.646,0,0,1-5.122,26.591c-11.389,45.535-41.514,83.116-88.944,92.95a107.221,107.221,0,0,1-26.848,2.5,114.572,114.572,0,0,1-16.954,1.289c-17.119.275-35.013-5.463-45.748-19.452C62,464.854,58.878,437.266,62.578,416.8" fill="#f6ebd8"/>
    <path id="Tracé_1018" data-name="Tracé 1018" d="M120.356,391.09a137.55,137.55,0,0,1,8.281-12.187c2.915-3.946,6.431-7.432,9.391-11.341l.183.48c-1.833-.268-3.665-.565-5.511-.7l-2.773-.078c-11.855-.272-24.222,2.392-33.843,9.451,2.152-3.042,5.664-5.23,8.976-6.974a43.047,43.047,0,0,1,24.952-3.658c2.7.3,5.648.954,8.313,1.361a.3.3,0,0,1,.19.473c-4.312,5.966-8.155,12.278-13.071,17.8-1.581,1.878-3.2,3.727-4.929,5.492a.1.1,0,0,1-.159-.121" fill="#f6ebd8"/>
    <path id="Tracé_1019" data-name="Tracé 1019" d="M132.6,396.711a149.172,149.172,0,0,1,2.374-21.47c1.54-7.044,3.091-14.066,3.975-21.231,1.559-10.7,3.562-21.448,7.538-31.558a30.354,30.354,0,0,1,4.641-8.35l1.019-.932c.086-.082.227.05.142.139-2.25,2.774-3.223,6.325-4.318,9.67-2.052,6.844-3.68,13.821-5.413,20.763-1.584,7-3.614,13.932-4.681,21.04-.949,7.127-1.53,14.3-2.933,21.367-.626,3.539-1.327,7.069-2.146,10.587a.1.1,0,0,1-.2-.025" fill="#f6ebd8"/>
    <path id="Tracé_1020" data-name="Tracé 1020" d="M155.037,306.441a16.454,16.454,0,0,0,9.16,10.582c6.02,1.926,12.377,1.671,18.648,1.632a.05.05,0,0,1,.012.1,31.9,31.9,0,0,1-8.437.9,26.686,26.686,0,0,1-12.265-3.249,19.781,19.781,0,0,1-3.6-2.336c-1.969-1.786-3.926-5.186-3.52-7.627" fill="#f9dcc4"/>
    <path id="Tracé_1021" data-name="Tracé 1021" d="M85.352,270.178c3.582,1.786,8.381,4.182,11.933,5.84,3.986,1.69,7.975,3.993,12.329,4.4a67.245,67.245,0,0,0,24.714,16.311,88.824,88.824,0,0,0,9.317,3.2.55.55,0,0,1,.382.453,17.093,17.093,0,0,0,13.181,14.482c1.4.374,4.282,1.341,5.7,1.592.026,0-.035,0-.046.051-.012.027,0,.071.015.074a.994.994,0,0,0-.168-.1c-.264-.126-.541-.237-.816-.346a.05.05,0,0,1,.032-.094,5.745,5.745,0,0,1,1.075.4c.02.016.055.081.035.119a.128.128,0,0,1-.1.072,17.962,17.962,0,0,1-2.4-.421,68.476,68.476,0,0,1-6.953-1.792,16.177,16.177,0,0,1-8.171-7.044,19.485,19.485,0,0,1-2.445-6.887l.383.454a82.115,82.115,0,0,1-26.461-13.495,65,65,0,0,1-7.583-6.456l.3.118c-2.308.074-4.471-.827-6.59-1.617a106.4,106.4,0,0,1-17.67-9.314" fill="#f9dcc4"/>
    <path id="Tracé_1022" data-name="Tracé 1022" d="M75.29,155.522a69.286,69.286,0,0,0-35.278,10.633c-3.41,2.226-7.159,4.538-10.506,6.8-3.7,2.484-9.368,6.126-12.817,8.806-8.54,7.577-13.56,18.487-15.2,29.692A83.974,83.974,0,0,0,3.4,244.439,58.574,58.574,0,0,0,7.745,260.1c4.3,9.945,10.924,18.757,18.568,26.393q2.877,2.87,5.927,5.561c1.984,1.641,3.877,3.649,6.329,4.52a11.181,11.181,0,0,0,7.44-.064l7.927-2.085c5.284-1.395,10.554-2.84,15.8-4.373A232,232,0,0,0,93.025,282.3c2.346-1.126,5.253-2.032,6.7-4.306.03-.132.243-.057.189.063a7.274,7.274,0,0,1-3,2.841,72.035,72.035,0,0,1-11.195,5.228c-10.24,3.939-20.742,7.108-31.274,10.147-5.326,1.218-11.187,4.287-16.579,2.236-2.774-.963-4.807-3.056-7-4.873a101.459,101.459,0,0,1-16.638-18.39c-6.329-9.025-10.937-19.529-11.938-30.6A97.118,97.118,0,0,1,.108,228.092c-.8-17.213,2.677-36.5,16.359-48.273a281.514,281.514,0,0,1,26.371-17.111c9.758-4.986,22.138-8.395,32.452-7.186" fill="#f9dcc4"/>
    <path id="Tracé_1023" data-name="Tracé 1023" d="M31.809,290.237a58.967,58.967,0,0,1,15-5.289c3.492-.8,6.862-2.149,10.545-1.831,5.24.622,10.457.006,15.7-.684a.05.05,0,0,1,.024.1,39.3,39.3,0,0,1-10.489,1.9c-3.562.15-6.928-.936-10.521-.247-6.971.844-13.663,4.7-20.26,6.057" fill="#f9dcc4"/>
    <path id="Tracé_1024" data-name="Tracé 1024" d="M37.371,293.587a12.968,12.968,0,0,1,4.509-3.549c1.536-1.138,2.774-2.67,4.352-3.757a18.312,18.312,0,0,1,3.342-1.921.052.052,0,0,1,.06.08c-2,2.624-4.918,4.038-7.559,5.856a12.975,12.975,0,0,1-4.644,3.371.052.052,0,0,1-.06-.08" fill="#f9dcc4"/>
    <path id="Tracé_1025" data-name="Tracé 1025" d="M50.737,184.368c5.054-7.477,11.653-13.628,17.333-20.586A126.781,126.781,0,0,1,81.9,149.05c1.738-1.4,3.446-3.089,5.645-3.709a.05.05,0,0,1,.02.1c-3.847,2.128-6.66,5.952-9.795,9-3.227,3.435-10.883,11.179-13.818,14.681-4.2,5.132-8.534,10.9-13.216,15.248" fill="#f9dcc4"/>
    <path id="Tracé_1026" data-name="Tracé 1026" d="M56.328,168.751a7.464,7.464,0,0,1,4.04-1.847c1.823-.789,3.461-2.1,5.525-2.237a2.635,2.635,0,0,1,1.575.184.047.047,0,0,1-.018.087,24.912,24.912,0,0,0-2.7,1.047c-1.35.55-2.906.644-4.256,1.219a8.214,8.214,0,0,1-4.122,1.638.053.053,0,0,1-.041-.091" fill="#f9dcc4"/>
    <path id="Tracé_1027" data-name="Tracé 1027" d="M83.542,155.347c5.779-13.127,12.479-26.433,22.889-36.544a20.363,20.363,0,0,1,5.122-3.615,17.256,17.256,0,0,0,5.08-3.277c4.576-4.1,8.086-9.215,11.584-14.227,4.621-6.743,8.923-13.745,13.024-20.807A54.186,54.186,0,0,1,157.166,57.9a35.917,35.917,0,0,1,7.253-4c.113-.056.2.131.083.182a43.344,43.344,0,0,0-6.716,4.617A61.1,61.1,0,0,0,143.1,77.929,204.861,204.861,0,0,1,129.5,98.612a93.018,93.018,0,0,1-12.459,13.777,20.22,20.22,0,0,1-5.224,3.39,16.892,16.892,0,0,0-4.712,3.715c-4.155,4.491-7.372,9.736-10.734,14.838-4.407,6.891-8.509,13.994-12.653,21.1a.1.1,0,0,1-.18-.087" fill="#f9dcc4"/>
    <path id="Tracé_1028" data-name="Tracé 1028" d="M144.683,227.3c.074,6.807,4.858,13.38,11.924,13.745,6.788.7,13.527-1,20.159-2.041a43.291,43.291,0,0,1-9.947,2.731c-6.682.964-14.421.223-19.5-4.659-2.306-2.523-3.514-6.824-2.632-9.776" fill="#f9dcc4"/>
    <path id="Tracé_1029" data-name="Tracé 1029" d="M197.894,241.292a48.832,48.832,0,0,1-12.015-1c-5.336-.583-10.8-.579-15.936-2.353a9.438,9.438,0,0,1-2.774-1.356,1.18,1.18,0,0,1-.529-.916.05.05,0,0,1,.1,0,1.071,1.071,0,0,0,.612.649,30.719,30.719,0,0,0,6.712,1.608c3.936.647,7.87,1.622,11.851,2.047,3.917.229,8.415.22,11.979,1.319" fill="#f9dcc4"/>
    <path id="Tracé_1030" data-name="Tracé 1030" d="M151.135,162.1a26.514,26.514,0,0,0,7.505,10.7c6.3,4.229,14.369,2.881,21.409,1.519.055-.014.086.075.031.1-5.467,2.395-12.045,3.237-17.67.831a24.87,24.87,0,0,1-7.486-5.031,15.668,15.668,0,0,1-3.887-8.1.051.051,0,0,1,.1-.022" fill="#f9dcc4"/>
    <path id="Tracé_1031" data-name="Tracé 1031" d="M156.139,284.367c1.03.829,5.649,4.539,6.543,5.331a14.974,14.974,0,0,0,4.349,2.565,38.964,38.964,0,0,0,13.028,2.792.051.051,0,0,1,.011.1,18.033,18.033,0,0,1-13.28-2.4l-2.929-1.761a19.876,19.876,0,0,1-7.8-6.56.051.051,0,0,1,.075-.066" fill="#f9dcc4"/>
    <path id="Tracé_1032" data-name="Tracé 1032" d="M144.641,282.462c2.252,3.049,4.375,6.639,7.617,8.638a18.858,18.858,0,0,0,11.118,1.772c1.112-.088,2.18-.4,3.3-.511a.05.05,0,0,1,.025.1,13.85,13.85,0,0,1-13.931-.579,43.079,43.079,0,0,1-4.763-3.565,13.9,13.9,0,0,1-3.463-5.812.051.051,0,0,1,.092-.039" fill="#f9dcc4"/>
    <path id="Tracé_1033" data-name="Tracé 1033" d="M249.8,4.46a71.012,71.012,0,0,1-11.707,14,22.094,22.094,0,0,1-7.962,4.9c-3.258,1.115-7.153-.269-8.147-3.78l.253.283c-11.094-5.633-24.789-2.913-34.253,4.681a32.768,32.768,0,0,0-3.773,3.41l-.468.31c.026,0-.086.048-.194.136a43.29,43.29,0,0,0-5.363,6.623c-3.871,5.2-12.112,18.259-16.01,23.513a244.278,244.278,0,0,1,14.382-24.641,50.31,50.31,0,0,1,5.157-6.734,4.022,4.022,0,0,1,1.351-.927l-.465.31C193.476,15.3,208.414,13.4,222.6,19.031a.426.426,0,0,1,.253.283,4.828,4.828,0,0,0,2.823,2.729c7.426,1.868,19.015-12.643,23.974-17.7.073-.093.229.024.158.121" fill="#f9dcc4"/>
    <path id="Tracé_1034" data-name="Tracé 1034" d="M199.079,60.61c18.583,13.125,39.987-.1,52.072-15.723,7.395-8.622,14.335-20.923,11.953-32.6-1.734-6.851-6.067-14.048-13.28-7.69a.97.97,0,0,1-.768.241c-4.731-.458-9.425,2.2-13.456,4.58a93.663,93.663,0,0,0-12,8.985c-.084.089-.229-.055-.142-.142,6.177-6.4,16.379-15.8,25.816-15.414l-.818.288c8.481-7.612,14.737-.045,16.569,8.721,2.41,12.634-5.575,24.445-13.387,33.419-6.5,7.9-13.545,16.012-23.321,19.928a28.741,28.741,0,0,1-22.918-.186,24.611,24.611,0,0,1-6.457-4.258c-.094-.082.043-.232.134-.148" fill="#f9dcc4"/>
    <path id="Tracé_1035" data-name="Tracé 1035" d="M185.588,36.154a8.8,8.8,0,0,1,.2-4.088c-.121-2.3-.933-4.486-.354-6.823a.053.053,0,0,1,.1-.013,8.227,8.227,0,0,1,.786,2.685c.211,1.392-.215,2.773-.207,4.155a5.487,5.487,0,0,1-.428,4.1.054.054,0,0,1-.1-.02" fill="#f9dcc4"/>
    <path id="Tracé_1036" data-name="Tracé 1036" d="M191.186,29.433c.477-1.17.728-1.946,1.254-3.134a7.562,7.562,0,0,0-.187-2.317,9.21,9.21,0,0,1,.1-3.516.054.054,0,0,1,.1-.015,6.048,6.048,0,0,1,.75,2.308,13.387,13.387,0,0,1-.439,3.586,3.39,3.39,0,0,1-.476,2.406,1.78,1.78,0,0,1-1.051.769.053.053,0,0,1-.048-.087" fill="#f9dcc4"/>
    <path id="Tracé_1037" data-name="Tracé 1037" d="M186.734,127.46a27.29,27.29,0,0,1,15.586-1.316c1.754.44,3.716.688,4.841,2.355l-.328-.214a109.4,109.4,0,0,1,12.362.084,51.609,51.609,0,0,1,10.709,1.822,7.656,7.656,0,0,1,1.474.622.1.1,0,0,1-.06.183,23.041,23.041,0,0,0-3.069-.168,140.652,140.652,0,0,1-21.455-1.767.365.365,0,0,1-.328-.215,3.02,3.02,0,0,0-1.775-1.435c-2.433-.848-5.078-.293-7.582-.137-1.7.114-3.41.172-5.128.275-1.722.067-3.448.151-5.211.108a.1.1,0,0,1-.036-.2" fill="#f9dcc4"/>
    <path id="Tracé_1038" data-name="Tracé 1038" d="M261.427,123.2a47.261,47.261,0,0,1-9.33,1.188,26.1,26.1,0,0,0-9.328.809c-5.2,1.481-12.765,3.337-18.078,4.68a.1.1,0,0,1-.125-.071c3.685-3.046,8.61-4.51,13.3-5.237,3.112-.582,6.333-.339,9.445-.869,3.085-.636,6.183-1.448,9.377-1.227a23.438,23.438,0,0,1,4.741.527.1.1,0,0,1,0,.2" fill="#f9dcc4"/>
    <path id="Tracé_1039" data-name="Tracé 1039" d="M198.912,125.757c-1.551-7.753-1.323-15.661-.521-23.472.3-7.858-.174-15.79,1.59-23.532,1.273-4.89,2.832-11.178,7.921-13.4a.1.1,0,0,1,.087.181,8.267,8.267,0,0,0-2.495,2.8c-1.872,3.329-2.665,7.115-3.426,10.851-.935,4.358-1.808,10.839-2.442,15.327-1.312,7.772.215,15.584-.146,23.4-.058,2.6-.133,5.208-.368,7.829a.1.1,0,0,1-.2.012" fill="#f6ebd8"/>
    <path id="Tracé_1040" data-name="Tracé 1040" d="M185.976,118.962a11.326,11.326,0,0,1,5.121,2.114c2.264,1,4.788,1.5,6.708,3.181a4.174,4.174,0,0,1,1.25,1.468.05.05,0,0,1-.073.06c-1.542-.962-3.291-1.555-4.832-2.554a29.631,29.631,0,0,0-3.188-1.86,12.919,12.919,0,0,1-5.024-2.317.052.052,0,0,1,.038-.092" fill="#f9dcc4"/>
    <path id="Tracé_1041" data-name="Tracé 1041" d="M307.142,108.709a287.177,287.177,0,0,0-33.528,10.576c-5.366,2.151-10.863,4.551-15.1,8.566a12.723,12.723,0,0,0-3.088,4.371l-.382,1-.455,2.131c-1.791,8.6,2.991,17.52,10.659,21.422,5.145,3,10.964,2.211,16.625,1.58a238.521,238.521,0,0,0,25.96-4.5c2.8-.752,5.941-1.348,8.28-2.963a.1.1,0,0,1,.012.131c-.987,1.2-2.485,1.67-3.836,2.293a96.074,96.074,0,0,1-12.725,3.9,161.847,161.847,0,0,1-17.439,3.262c-5.9.773-12.508,1.256-17.787-2.051-9.291-5.186-12.918-15.358-9.9-25.373a14.423,14.423,0,0,1,3.615-5.653c8.628-8.285,20.4-12.277,31.7-15.388a141.308,141.308,0,0,1,17.354-3.494.1.1,0,0,1,.037.2" fill="#f9dcc4"/>
    <path id="Tracé_1042" data-name="Tracé 1042" d="M261.45,30.6c11.473,2.045,21.521,9.506,27.873,19.128A58.29,58.29,0,0,1,300.89,81.886a69.665,69.665,0,0,1-2.627,22.9c.592-8.5,1.132-17.111.308-25.586-1.373-14.4-5.742-28.068-17.788-37.02A69.05,69.05,0,0,0,261.4,30.8c-.114-.026-.075-.223.045-.195" fill="#f6ebd8"/>
    <path id="Tracé_1043" data-name="Tracé 1043" d="M281.528,167.65a27.191,27.191,0,0,1,4.027,3.166c2.526,1.35,5.363,1.291,8.179,1.277a.052.052,0,0,1,.032.1c-2.737,1.819-5.927.588-8.375-1.092a6.692,6.692,0,0,1-3.94-3.382.052.052,0,0,1,.077-.064" fill="#f9dcc4"/>
    <path id="Tracé_1044" data-name="Tracé 1044" d="M283.62,146.526c-5.852-4.358-7.454-13.248-7.655-20.158l.773.821a33.277,33.277,0,0,0-8.084.143,11.628,11.628,0,0,0-7.1,3.472,18.97,18.97,0,0,0-2.82,15.207c2.017,8.006,12.673,9.833,19.079,5.995a20.05,20.05,0,0,0,5.8-5.48m.2-.041a15.3,15.3,0,0,1-13.44,9.407c-6.124.181-12.216-3.082-13.459-9.425a19.5,19.5,0,0,1,4.134-16.1c4.122-4.018,10.283-4.734,15.815-4.843a.791.791,0,0,1,.774.822c.627,6.956,1.375,14.689,6.176,20.144" fill="#f9dcc4"/>
    <path id="Tracé_1045" data-name="Tracé 1045" d="M311.62,117.494a8.508,8.508,0,0,1,3.094,4.595c.824,1.672,1.977,3.206,2.393,5.062a10.275,10.275,0,0,1,.271,3.744.052.052,0,0,1-.1.012,64.942,64.942,0,0,1-2.175-6.968c-.633-2.41-2.724-3.927-3.56-6.38a.052.052,0,0,1,.076-.065" fill="#f9dcc4"/>
    <path id="Tracé_1046" data-name="Tracé 1046" d="M296.015,157.137a4.9,4.9,0,0,1,.937,3.493c.366,1.585,1.278,3.12.839,4.813a1.724,1.724,0,0,1-.662,1.16.052.052,0,0,1-.071-.071,9.267,9.267,0,0,0-.231-2.261,15.451,15.451,0,0,1-.074-2.379,4.065,4.065,0,0,0-.62-2.313,5.146,5.146,0,0,1-.215-2.416.055.055,0,0,1,.1-.026" fill="#f9dcc4"/>
    <path id="Tracé_1047" data-name="Tracé 1047" d="M312.694,149.749c14.482-1.628,43.226-5.535,48.433-21.3a29.719,29.719,0,0,0-1.873-24.4c-3.108-5.686-8.576-10.634-15.192-11.153-3.3-.163-6.531.842-9.724,1.6-13.057,3.521-26.041,7.7-38.2,13.687a52.021,52.021,0,0,0-8.6,5.375c-.086.092-.24-.063-.137-.147a44.65,44.65,0,0,1,8.244-6.114,152.353,152.353,0,0,1,38.184-14.824c3.392-.743,6.874-1.72,10.389-1.451,7.252.687,13.018,6.235,16,12.522,4.454,9.324,4.553,20.86-.4,29.956-5.76,9-16.84,12.367-26.73,14.5a101.846,101.846,0,0,1-20.4,1.956.1.1,0,0,1-.006-.2" fill="#f9dcc4"/>
    <path id="Tracé_1048" data-name="Tracé 1048" d="M298.75,170.1a45.091,45.091,0,0,1,2.993-4.6c1.161-2.846.82-5.907.875-8.949a.052.052,0,0,1,.1-.028,8.4,8.4,0,0,1-.311,8.25c-.777,2.053-1.473,4.3-3.584,5.4a.052.052,0,0,1-.069-.072" fill="#f9dcc4"/>
    <path id="Tracé_1049" data-name="Tracé 1049" d="M264.55,13.374c10.532-4.25,17.6,6.367,15.172,15.983-.761,2.876-1.815,6.034-3.668,8.25.507-4.392,1.8-8.507,2.238-12.849.162-2.714.373-5.883-1.7-7.99a7.811,7.811,0,0,0-3.661-1.88,37.02,37.02,0,0,0-8.345-1.318.1.1,0,0,1-.04-.2" fill="#f9dcc4"/>
    <path id="Tracé_1050" data-name="Tracé 1050" d="M337.215,175.384c3.737-.949,7.933-1.233,11.148-3.362a35.347,35.347,0,0,0,4.387-4.173,20.6,20.6,0,0,0,4.032-16.69,24.05,24.05,0,0,0-5.258-10.464.1.1,0,0,1,.007-.149,16.22,16.22,0,0,1,7.334,10.154,16.973,16.973,0,0,1-2.137,12.384,95.177,95.177,0,0,1-7.21,10.137c-1.7,1.653-3.9,2.031-6.07,2.377a23.029,23.029,0,0,1-6.228-.014.1.1,0,0,1-.005-.2" fill="#f9dcc4"/>
    <path id="Tracé_1051" data-name="Tracé 1051" d="M349.437,180.034c-9.118-3.257-19.046-6.556-28.806-5-4.892,1.917-11.544,2.589-17.237,2.923-10.121.628-24.656-.719-34.89-1.312a252.847,252.847,0,0,0-26.067-.667c-8.64.731-17.38,1.531-25.948,2.779-5.419.994-11.747,2.2-15.2,6.814a26.843,26.843,0,0,0-4.122,16.189c.852,13.237,13.6,16.871,24.954,16.514,11.566-.314,23.3.331,34.82.257,8.563-.255,16.949-3.239,25.231-5.5,3.563-.93,7.251-2.324,11.015-1.658,4.965,1.188,9.955,1.849,14.987,2.667l8.606,1.374c2.868.476,5.739.906,8.6,1.492.119.019.09.221-.034.2-5.736-.854-11.532-1.4-17.3-2.118-5.02-.657-10.15-1.183-15.108-2.212-3.49-.465-6.85.881-10.292,1.847-8.388,2.455-16.777,5.672-25.624,5.938-11.711.124-23.206-.419-34.879-.288-10.179.21-22.738-2.775-25.746-13.957-1.894-7.244-.09-15.207,4.058-21.351,3.823-4.858,10.253-5.86,15.924-6.9,5.764-.9,11.578-1.242,17.333-1.945a131.776,131.776,0,0,1,17.415-1.275c17.438-.452,34.8,1.866,52.193,1.476,5.7-.283,11.676-.8,17.05-2.61,7.57-1.145,15.107.938,22.2,3.355,2.356.828,4.679,1.739,6.945,2.786.117.048.034.234-.08.183" fill="#f9dcc4"/>
    <path id="Tracé_1052" data-name="Tracé 1052" d="M184.537,299.152c3.858.2,7.239,2.146,11.039,2.463,3.787.492,7.6.182,11.279.937a24.661,24.661,0,0,1-8.588.239c-1.89-.263-3.679-.985-5.551-1.312a23.244,23.244,0,0,1-8.208-2.231.051.051,0,0,1,.029-.1" fill="#f9dcc4"/>
    <path id="Tracé_1053" data-name="Tracé 1053" d="M196.824,297.994c6.612,1.7,12.693,4.705,18.674,7.894,4.081,1.918,8.516,2.986,12.7,4.633,6.394,2.186,12.469,5.107,18.765,7.532a.1.1,0,0,1-.04.193,30.605,30.605,0,0,1-6.724-1.258c-8.819-2.262-16.68-6.9-24.956-10.5-4.251-1.506-8.6-2.8-12.591-4.957a57.416,57.416,0,0,1-5.911-3.35.1.1,0,0,1,.082-.183" fill="#f9dcc4"/>
    <path id="Tracé_1054" data-name="Tracé 1054" d="M221.945,310.11c-2.753,6.955-4.277,15.2.643,21.33,3.54,4.349,10.03,5.893,14.946,3.123,1.622-.967,3.2-2.07,4.809-3.054,2.158-1.306,7.795-4.709,9.892-5.967a28.025,28.025,0,0,0,3.188-2.141c.079-.075.218.045.145.135a18.031,18.031,0,0,1-2.725,2.829,92,92,0,0,1-12.644,8.987,12.326,12.326,0,0,1-11.774,1.227c-4.682-2.4-8.884-6.322-10.392-11.531-1.257-5.253.541-10.884,3.743-15.045a.1.1,0,0,1,.169.107" fill="#f9dcc4"/>
    <path id="Tracé_1055" data-name="Tracé 1055" d="M233.536,337.053a8.886,8.886,0,0,0,3.265-8.124,7.126,7.126,0,0,0-1.168-2.873.186.186,0,0,1,0-.215c2.6-4.3,7.645-8.222,12.9-6.716a.05.05,0,0,1-.016.1,13.024,13.024,0,0,0-3.662.5,20.913,20.913,0,0,0-8.909,6.333v-.215c1.547,2.813,2.648,6.645.224,9.309a7.738,7.738,0,0,1-2.586,1.985.05.05,0,0,1-.055-.083" fill="#f9dcc4"/>
    <path id="Tracé_1056" data-name="Tracé 1056" d="M250.218,319.895a2.754,2.754,0,0,1,.991,2.673c.176.98.757,1.9.442,2.953a2.268,2.268,0,0,1-1.334,1.578.056.056,0,0,1-.071-.071c.359-1.3.417-2.174.677-3.467a1.874,1.874,0,0,0-.031-.927,4.1,4.1,0,0,1-.764-2.7.056.056,0,0,1,.09-.043" fill="#f9dcc4"/>
    <path id="Tracé_1057" data-name="Tracé 1057" d="M245.873,333.758a7.8,7.8,0,0,0,2.241,4.109,5.868,5.868,0,0,0,1.275,1.018,7.546,7.546,0,0,0,3.188.809c2.578.379,5.239.192,7.777.75a14.563,14.563,0,0,1-11.112-1.271c-2.258-.68-4.228-3.009-3.468-5.429a.051.051,0,0,1,.1.014" fill="#f9dcc4"/>
    <path id="Tracé_1058" data-name="Tracé 1058" d="M280.38,341.453c8.746.223,17.891-2.07,23.9-8.788.814-.736,1.585-1.876,2.836-1.979-.115.015-.017,0,.04-.041,2.548-1.882,4.527-4.618,6.615-7.029,2.915-3.453,5.641-7.107,8.551-10.564,5.913-3.637,14.469-8.731,20.238-12.443,1.755-2.975,2.429-7.393-2.008-9.223a16.581,16.581,0,0,0-16.014,2.339c-4.618,3.545-9.336,6.991-14.188,10.223a108.745,108.745,0,0,1-15.237,8.818c-2.414,1-5.3,2.212-8.089,1.68-2.9.475-5.634,2.074-8.31,3.345-3.441,1.738-6.847,3.606-10.188,5.546A27.334,27.334,0,0,1,253.5,322.6a18.7,18.7,0,0,1-10.724-9.756c-.054-.117.14-.2.185-.077,3.433,6.429,10.776,9.963,17.909,9.794a33.426,33.426,0,0,0,7.08-.782l-.271.105a126.2,126.2,0,0,1,15.426-8.447,13.123,13.123,0,0,1,3.823-1.127,13.176,13.176,0,0,0,2.11.1c3.568-.5,7.111-2.451,10.363-4.117,3.379-1.818,6.674-3.832,9.922-5.917s6.459-4.245,9.638-6.45l4.762-3.335a17.906,17.906,0,0,1,17.13-1.875c4.482,1.847,4.509,6.847,2.041,10.41-5.729,3.693-14.009,9.319-19.758,13.192-1.651,2.577-5.409,7.287-7.983,10.438-2.3,2.566-4.307,5.425-7.234,7.376a1.8,1.8,0,0,1-.748.214A7.049,7.049,0,0,0,305.4,333.8a27.105,27.105,0,0,1-18.314,8.005,41.323,41.323,0,0,1-6.714-.155.1.1,0,0,1,.011-.2" fill="#f9dcc4"/>
    <path id="Tracé_1059" data-name="Tracé 1059" d="M260.348,192.167a2.557,2.557,0,0,1,1.719,2.2c.449.861,1.2,1.6,1.215,2.656a2.638,2.638,0,0,1-.693,1.882.057.057,0,0,1-.1-.032,28.694,28.694,0,0,1-.433-3.493,1.8,1.8,0,0,0-.28-.861,4.182,4.182,0,0,1-1.5-2.282.057.057,0,0,1,.071-.071" fill="#f9dcc4"/>
    <path id="Tracé_1060" data-name="Tracé 1060" d="M356.387,163c9.921,4.879,11,17.3,3.89,25.153a30.7,30.7,0,0,1-7.495,6.306,95.777,95.777,0,0,0,6.677-6.989c8.3-9.964,5.7-16.555-3.072-24.47" fill="#f9dcc4"/>
    <path id="Tracé_1061" data-name="Tracé 1061" d="M275.955,274.712c-4.252,5.045-10.792,7.317-17.073,8.593a69.985,69.985,0,0,1-32.013.34.05.05,0,0,1,.015-.1c2.151.1,4.285.266,6.413.45,8.368.36,17.305.848,25.511-1.008a61.446,61.446,0,0,0,10.395-4.042,30,30,0,0,0,6.676-4.3c.038-.046.118.017.076.065" fill="#f9dcc4"/>
    <path id="Tracé_1062" data-name="Tracé 1062" d="M306.083,262.487c-2.82,4.6-7.22,7.831-11.915,10.286-3.018,1.825-5.747,4.179-9.018,5.594-4.816,2.312-10.588,3.265-15.731,1.507a.1.1,0,0,1,.031-.2,48.5,48.5,0,0,0,5.158-.468,59.26,59.26,0,0,0,9.823-2.59c3.191-1.232,6.586-2.32,9.377-4.385,2.725-2.153,5.089-4.709,7.92-6.747,1.369-1.065,2.74-2.131,4.208-3.135a.1.1,0,0,1,.147.135" fill="#f9dcc4"/>
    <path id="Tracé_1063" data-name="Tracé 1063" d="M287.772,233.1c.551,3.4-.543,6.754.229,10.091.792,3.153,1.459,6.544,3.551,9.157.037.038-.015.108-.063.078-3.99-2.4-4.007-7.612-4.134-11.722a15.851,15.851,0,0,1,.318-7.616.051.051,0,0,1,.1.012" fill="#f9dcc4"/>
    <path id="Tracé_1064" data-name="Tracé 1064" d="M300.486,226.744a32.385,32.385,0,0,1,1.721,10.028c.4,3.386,1.212,6.715,1.117,10.159-.118,2.244-.223,4.792-1.732,6.6a.05.05,0,0,1-.08-.06c.9-2.055.719-4.351.746-6.549.014-2.231-.075-4.476-.1-6.736.033-4.47-2.024-9.176-1.669-13.444" fill="#f9dcc4"/>
    <path id="Tracé_1065" data-name="Tracé 1065" d="M306.058,231.406a20.445,20.445,0,0,1,1.578,8c.477,3.6,1.578,7.354.252,10.925a3.37,3.37,0,0,1-1.856,2.106.051.051,0,0,1-.045-.09c1.87-1.913,1.286-5.03,1.513-7.5a34.02,34.02,0,0,0-.185-5.4,35.714,35.714,0,0,1-1.354-8.017.051.051,0,0,1,.1-.023" fill="#f9dcc4"/>
    <path id="Tracé_1066" data-name="Tracé 1066" d="M331.547,308.137a6.3,6.3,0,0,1-.591-5.3,34.589,34.589,0,0,1,3.071-4.522c2.485-2.9,6.938-3.075,10.166-1.384a.106.106,0,0,1-.019.2,13.589,13.589,0,0,1-2.569.469c-3.121.749-8.265.364-8.946,4.42a36.857,36.857,0,0,1-.917,6.077.108.108,0,0,1-.2.041" fill="#f9dcc4"/>
    <path id="Tracé_1067" data-name="Tracé 1067" d="M265.972,319.051a20.015,20.015,0,0,1-.112-7.143c-.1-3.962-.869-8.081.172-11.944.988,3.918.266,7.966.152,11.944a20.014,20.014,0,0,1-.112,7.143.052.052,0,0,1-.1,0" fill="#f9dcc4"/>
    <path id="Tracé_1068" data-name="Tracé 1068" d="M272.889,318.123l1.846-3.647c2.232-3.538,1.738-7.906,1.815-11.926a.038.038,0,0,1,.074-.014c1.323,3.349.555,6.971-.714,10.2a10.329,10.329,0,0,1-2.963,5.431.038.038,0,0,1-.058-.047" fill="#f9dcc4"/>
    <path id="Tracé_1069" data-name="Tracé 1069" d="M256.921,311.474a4.94,4.94,0,0,1-.9-3.723c-.168-1.3-.735-2.538-.485-3.9a3.092,3.092,0,0,1,1.4-2.3.053.053,0,0,1,.073.068,8.272,8.272,0,0,0-.416,2.371,17.737,17.737,0,0,0-.251,3.712,7.153,7.153,0,0,1,.679,3.74.054.054,0,0,1-.1.029" fill="#f9dcc4"/>
    <path id="Tracé_1070" data-name="Tracé 1070" d="M340.48,290.224c1.737-3.188,4.9-5.36,7.2-8.073a46.017,46.017,0,0,0,10-29.768l.736.263c-4.9,6.758-9.889,13.446-15.088,19.976-5.3,6.434-10.649,13.161-16.5,18.967,6.745-10.472,14.778-20.337,22.764-29.975,2.681-3.214,5.472-6.341,8.2-9.515a.408.408,0,0,1,.711.294c-.267,3.628-.458,7.249-1.032,10.849-.955,9.072-5.09,18.306-12.912,23.457a28.084,28.084,0,0,0-3.916,3.642.1.1,0,0,1-.162-.117" fill="#f9dcc4"/>
    <path id="Tracé_1071" data-name="Tracé 1071" d="M275.906,265.995c5.479-1.762,11.138-2.318,16.818-2.832,3.745-.576,7.277-2.129,10.877-3.215,5.246-1.937,10.768-3.273,15.4-6.512a.1.1,0,0,1,.148.134c-2.237,3.231-5.97,5.094-9.511,6.528-5.383,2.151-11.182,2.532-16.793,3.7-3.669,1.01-7.336,2.174-11.178,2.344a35.072,35.072,0,0,1-5.745.052.1.1,0,0,1-.021-.2" fill="#f9dcc4"/>
    <path id="Tracé_1072" data-name="Tracé 1072" d="M314.642,252.288c4.494-1.089,14.748-2.928,19.022-4.2a37.066,37.066,0,0,0,18.776-16.527,43.391,43.391,0,0,0,2.514-5.948.1.1,0,0,1,.195.04c-.15,9.162-6.968,17.122-15.163,20.5-2.018.917-4.068,1.694-6.092,2.537-4,1.815-8.192,3.425-12.629,3.754a29.4,29.4,0,0,1-6.617.037.1.1,0,0,1-.006-.2" fill="#f9dcc4"/>
    <path id="Tracé_1073" data-name="Tracé 1073" d="M307.034,201.465c4,2.6,8.023,5.135,12.521,6.693,8.26,2.412,15.354-2.462,19.636-9.292.029-.05.114-.006.088.047-2.332,6.031-8.28,11.12-15.051,10.381-6.255-.588-13.266-3.067-17.194-7.829" fill="#f9dcc4"/>
    <path id="Tracé_1074" data-name="Tracé 1074" d="M358.051,252.912a84.265,84.265,0,0,0,6.644-11.674A28.263,28.263,0,0,0,363,219.624a.051.051,0,0,1,.085-.053c5.027,6.4,4.757,14.5,1.912,21.777-1.281,4.218-3.609,8.959-6.949,11.564" fill="#f9dcc4"/>
    <path id="Tracé_1075" data-name="Tracé 1075" d="M345.98,265.763c.009-4.785-.147-9.64,1.1-14.318,1.458-3.734,3.81-7.5,7.44-9.433,4.225-1.6,4,7.926,4.144,10.376l-.793-.179c3.835-7.289,1.217-14.221-6.649-16.833a.168.168,0,0,1-.086-.262c3.913-5.079,7.667-10.294,11.115-15.69,1.591-2.691,3.6-5.321,3.966-8.5,1.017-10.818-5.866-18.817-16.918-14.376-5.569,2.891-9.987,7.9-14.086,12.6-5.519,1.642-13.629,4.566-19.156,6.5,2.63-1.379,6.272-2.571,9.279-3.8,2.841-.985,6.62-2.538,9.495-3.3l-.2.13a80.5,80.5,0,0,1,6.442-7.223c2.895-2.712,6.123-5.721,10.167-6.654,10.87-3,17.054,6.245,15.759,16.215-.429,3.267-2.567,5.995-4.266,8.709-3.6,5.329-7.471,10.45-11.332,15.58l-.086-.262a15.233,15.233,0,0,1,4.8,2.538c4.894,3.541,5.065,9.937,2.5,14.974a.419.419,0,0,1-.792-.179,35.054,35.054,0,0,0-.721-7.009c-.267-.948-.5-2.244-1.394-2.679-1-.168-1.965.7-2.749,1.328a19.555,19.555,0,0,0-3.055,3.522c-3.958,5.121-3.226,12.43-3.933,18.213" fill="#f9dcc4"/>
    <path id="Tracé_1076" data-name="Tracé 1076" d="M359.669,223.121l.632-5.446c.167-1.8.568-3.6.572-5.431-.1-3.505-1.314-7.288-3.956-9.624A.506.506,0,0,1,356.8,202a12.329,12.329,0,0,1,2.21-2.95,4.222,4.222,0,0,1,3.323-1.43.051.051,0,0,1,0,.1c-2.323.45-3.535,2.861-4.58,4.75l-.135-.642c3.112,2.554,3.441,6.728,3.576,10.409a22.117,22.117,0,0,1-1.429,10.913.051.051,0,0,1-.1-.027" fill="#f9dcc4"/>
    <path id="Tracé_1077" data-name="Tracé 1077" d="M282.553,270.307c-6.454-3.238-13.471-7.262-19.964-10.432-16.749-6.114-46.165-18.422-61.521-1.5-9.4,11.263-4.41,25.5,10.317,27.813a65.057,65.057,0,0,0,12.539-.367,7.328,7.328,0,0,0,3.806-1.482c.087-.11.23.032.156.125a7.244,7.244,0,0,1-3.83,1.963,56.065,56.065,0,0,1-12.81,1.275,25.464,25.464,0,0,1-6.618-1.719c-12.219-4.951-13.4-19.784-4.936-28.828,9.539-10.49,25.056-8.433,37.655-6.392a109.953,109.953,0,0,1,25.24,7.324l-.545-.045a1.456,1.456,0,0,1,.559.02,19.371,19.371,0,0,1,2.67,1.3c4.223,2.366,8.446,4.937,12.505,7.561,1.632,1.061,3.272,2.108,4.879,3.211.1.063,0,.231-.1.172" fill="#f9dcc4"/>
    <path id="Tracé_1078" data-name="Tracé 1078" d="M204.579,279.822c.408-2.784,1.328-6.794,1.9-9.6a94.42,94.42,0,0,0,1.926-10.476,2.526,2.526,0,0,0-.12-.683c-.17-2.762,6.671-.446,8.172-.2,1.583.394,3.151.835,4.705,1.35,1.678.661,3.79,1.148,5,2.824.6,1.3,1.195,2.67,1.7,4.019,6.224,16.671-12.3,17.514-23.289,12.77m.178-.094c6.979,1.1,22.923,3.08,22.411-7.627a36.877,36.877,0,0,0-2.028-8.522c-2.266-3.188-11.887-5.325-15.582-4.4-.03.01.048-.011.056-.035a.221.221,0,0,0,.026-.046c.079-.046.072-.242.083-.269s-.026-.1-.014-.058a2.809,2.809,0,0,1,.163.46c.363,2.237-.226,4.5-.655,6.635a87.937,87.937,0,0,1-3.548,11.669c-.186.5-.575,1.5-.786,1.987l-.06.141c-.028.046-.023.115-.066.065" fill="#f9dcc4"/>
    <path id="Tracé_1079" data-name="Tracé 1079" d="M222.678,279.78a12.64,12.64,0,0,1-.3-6.438c.091-3.345-.431-8.321,3.364-9.854a.052.052,0,0,1,.045.09,7.077,7.077,0,0,0-1.86,3.568,28.917,28.917,0,0,0-1.225,6.206,23.023,23.023,0,0,1,.078,6.418.051.051,0,0,1-.1.01" fill="#f9dcc4"/>
    <path id="Tracé_1080" data-name="Tracé 1080" d="M343.934,92.966a27.111,27.111,0,0,1,8.183,7.106c4.062,4.184,9.065,9.49,7.651,15.843a.051.051,0,0,1-.1-.012,15.928,15.928,0,0,0-1.824-6.756,36.83,36.83,0,0,0-5.962-8.852c-2.565-2.414-5.857-4.745-7.948-7.329" fill="#f9dcc4"/>
    <path id="Tracé_1081" data-name="Tracé 1081" d="M349.517,142.659a9.813,9.813,0,0,1,3.062,4.787c1.432,2.626,3.629,5.929,2.174,9.127a41.323,41.323,0,0,0-2.461-8.979,18.038,18.038,0,0,1-2.855-4.876.052.052,0,0,1,.08-.059" fill="#f9dcc4"/>
    <path id="Tracé_1082" data-name="Tracé 1082" d="M347.272,252.359a4.608,4.608,0,0,1,2.463,2.45c.705.973,1.627,1.821,1.737,3.128a2.66,2.66,0,0,1-.849,2.274.039.039,0,0,1-.062-.042,6.631,6.631,0,0,0-1.02-5.214,10.438,10.438,0,0,1-2.316-2.537.04.04,0,0,1,.047-.059" fill="#f9dcc4"/>
    <path id="Tracé_1083" data-name="Tracé 1083" d="M329.243,194.8a8.072,8.072,0,0,1-.329-4.836c-.037-2.173-.588-4.468.481-6.515a3.159,3.159,0,0,1,1.1-1.317.052.052,0,0,1,.075.064,11.694,11.694,0,0,0-.655,3.033,40.672,40.672,0,0,0-.676,4.735,10.884,10.884,0,0,1,.1,4.827.052.052,0,0,1-.1.009" fill="#f9dcc4"/>
    <path id="Tracé_1084" data-name="Tracé 1084" d="M337.169,194.785a11.26,11.26,0,0,1,1.085-4.959c.373-1.635.219-3.4.5-5.032.147-1.106.393-2.162.438-3.3a.05.05,0,0,1,.094-.022,6.174,6.174,0,0,1,.528,3.444c-.11,1.734-.9,3.3-1.241,4.979a9.312,9.312,0,0,1-1.3,4.918.052.052,0,0,1-.1-.026" fill="#f9dcc4"/>
    <path id="Tracé_1085" data-name="Tracé 1085" d="M220.726,210.3c3.352-1.871,3.079-6.3,3.725-9.613.3-2.659.639-5.305.713-7.958-.08-1.1.24-2.373-.673-3.059-2.577-1.629-5.754-2.205-8.735-2.788a51.189,51.189,0,0,0-9.342-.763,3.2,3.2,0,0,0-2.01,1.133c-2.036,2.234-2.519,5.343-2.5,8.31a42.562,42.562,0,0,0,1.8,10.382c.417,1.512.808,3.224,2.07,4.282a6.845,6.845,0,0,0,4.476,1.567c3.532.354,7.275.209,10.478-1.493m.1.176a25.442,25.442,0,0,1-10.6,2.634,7.1,7.1,0,0,1-8.149-5.257c-1.749-5.669-3.127-12.1-.994-17.9,1.026-2.677,3.539-5.45,6.669-4.717,1.706.208,6.339.788,8.106,1.009a42.953,42.953,0,0,1,8.134,1.525,4.71,4.71,0,0,1,2.367,1.544c.9,2.026.591,4.151.414,6.223a51.437,51.437,0,0,1-2.716,10.626,6.873,6.873,0,0,1-3.23,4.318" fill="#f9dcc4"/>
    <path id="Tracé_1086" data-name="Tracé 1086" d="M308.06,31.355c4.225,2.635,7.076,6.785,9.176,11.187,1.591,2.827,3.74,5.364,4.969,8.406,2.035,4.475,2.772,9.847,1.011,14.514l-.2-.034c-.067-1.633-.2-3.2-.4-4.745a61.58,61.58,0,0,0-2.177-9.062c-1.049-2.956-1.914-6.127-3.751-8.733-1.927-2.543-4.25-4.745-6.03-7.414-.937-1.289-1.872-2.582-2.737-3.975Z" fill="#f9dcc4"/>
    <path id="Tracé_1087" data-name="Tracé 1087" d="M303.223,48.363c3.671,2.049,5.759,5.81,6.907,9.712.463,1.253,1.082,2.437,1.634,3.674a18.78,18.78,0,0,1,.325,15.855l-.2-.042c-.148-4.052-.221-7.7-.612-11.638-.455-3.2-.683-6.625-2.8-9.243a70.618,70.618,0,0,1-5.395-8.171l.136-.147" fill="#f9dcc4"/>
    <path id="Tracé_1088" data-name="Tracé 1088" d="M156.108,13.294c-2.965,1.4-6.08,1.694-9.076,2.854-2.748,1.512-4.032,4.708-5.319,7.41a56.239,56.239,0,0,0-2.149,5.915l-.2.007c-1.43-5.07,1.4-10.589,5.96-12.966,1.894-1.131,3.52-2.935,5.762-3.367a10.878,10.878,0,0,1,5.008-.053l.013.2" fill="#f9dcc4"/>
    <path id="Tracé_1089" data-name="Tracé 1089" d="M152.033,42.326a13.262,13.262,0,0,1,.391-12.474,21.858,21.858,0,0,1,3.246-5.612c3.549-3.775,9.249-4.95,14.153-3.881l0,.2a67.924,67.924,0,0,0-7.867,2.207c-3.6,1.286-7.571,3.474-8.934,7.321-.68,2.119-.48,5.756-.7,8.043l-.1,4.145Z" fill="#f9dcc4"/>
    <path id="Tracé_1090" data-name="Tracé 1090" d="M175.747,318.71c8.289,7.574,18.274,13.021,28.687,17.075a77.5,77.5,0,0,0,16.214,4.349,60.5,60.5,0,0,1,8.318,1.495,27.651,27.651,0,0,1,7.8,3.267,76.852,76.852,0,0,0,12.057,4.613c3.945,1.005,8.536,2.227,12.374.514a29.746,29.746,0,0,0,11.174-3.727,24.782,24.782,0,0,0,8.422-8.129,21.885,21.885,0,0,1-8.062,8.72,28.305,28.305,0,0,1-11.078,4.028c-7.251,3.118-18.6-2.108-25.312-5.3-4.638-3.079-10.275-4.4-15.75-5.142-11.085-1.915-22.09-5.226-31.7-11.217-4.661-2.935-9.824-6.481-13.148-10.549" fill="#f9dcc4"/>
  </g>
</svg>
