<svg id="Groupe_117" data-name="Groupe 117" xmlns="http://www.w3.org/2000/svg" xmlns:xlink="http://www.w3.org/1999/xlink" width="563.841" height="356.604" viewBox="0 0 563.841 356.604">
  <defs>
    <clipPath id="clip-path">
      <rect id="Rectangle_114" data-name="Rectangle 114" width="563.841" height="356.604" fill="none"/>
    </clipPath>
  </defs>
  <g id="Groupe_116" data-name="Groupe 116" clip-path="url(#clip-path)">
    <path id="Tracé_987" data-name="Tracé 987" d="M0,.114C43.831,28.06,87.137,57.134,132.866,81.9c4.4,2.152,8.855,4.716,13.673,5.692,6.361.432,12.749-.909,19.054-2.186a328.06,328.06,0,0,0,49.5-15.519c10.7-4.32,21.306-9.01,31.138-15.048,6.855-3.369,13.783-6.574,20.817-9.549,6.184-2.476,12.372-5.282,18.984-6.4a6.281,6.281,0,0,1,2.994.147l-.33.042a61.535,61.535,0,0,1,34.318-12.012c1,.014,3.766.084,4.821.121a53.221,53.221,0,0,1,6.358.962l3.139.72c11.724-5.031,27.017-10.709,40.036-15.706C387.517,9.37,397.678,5.585,408.028,2.34A57.139,57.139,0,0,1,417.395.029a3.337,3.337,0,0,1,1.862.234L418.67.144a23.946,23.946,0,0,1,5.046.069c11.5,1.308,21.8,7.874,29.9,15.834,2.232,2.518,5.489,2,8.457,2.527a32.818,32.818,0,0,1,9.394,3.23,44.43,44.43,0,0,1,8.18,5.537c1.24,1.083,2.938,2.852,4.551,3.384,7.118,3,14.216,6.093,20.651,10.462,2.67,1.854,4.771,4.335,7.425,6.281,7.516,6.238,13.591,13.952,19.878,21.33,4.007,5.033,8.386,9.753,12.633,14.585a29.94,29.94,0,0,0,9.474,6.828c7.933,4.46,13.038,16.169,6.8,23.969a17.359,17.359,0,0,1-8.476,5.287c-9.581,2.9-19.865.438-28.524-4.048a77.63,77.63,0,0,1-15.953-11.04,20.236,20.236,0,0,0-3.988-2.484c-13.889-6.358-25.737-17.751-20.031-34.118a30.466,30.466,0,0,1,4.58-8.521l.155.127A30.171,30.171,0,0,0,484.44,67.9c-5.346,16.11,6.558,26.979,20.114,33.06a21.277,21.277,0,0,1,4.223,2.574,76.517,76.517,0,0,0,15.853,10.758c5.661,2.812,11.854,4.86,18.2,4.964,8.819.327,20.6-3.852,19.2-14.564a17.694,17.694,0,0,0-8.71-12.831,31.243,31.243,0,0,1-10.041-7.145c-4.268-4.84-8.667-9.567-12.7-14.614-6.228-7.286-12.241-14.9-19.624-21.013-1.238-.992-2.549-2.023-3.753-3.164a24.512,24.512,0,0,0-3.571-3.021c-5.885-4-12.593-6.936-19.137-9.764a12.214,12.214,0,0,1-4.445-2.631c-6.36-6.071-14.289-10.2-23.157-10.5a9.243,9.243,0,0,1-4.665-2.569A61.246,61.246,0,0,0,436.985,6.191c-5.551-2.725-11.847-4.7-18.062-4.276a6.011,6.011,0,0,0-2.644.052C410.14,3.2,404.194,5.312,398.241,7.256c-20.526,7-40.8,14.757-61.013,22.6-.882-.206-3.857-.926-4.776-1.143-1.431-.238-3.33-.437-4.691-.638l-3.155-.12c-12.718-.229-25.371,4.417-35.664,11.746a5.459,5.459,0,0,0-2.834-.178,45.294,45.294,0,0,0-8.2,2.186c-10.7,3.8-21.219,8.833-31.284,13.76A220.932,220.932,0,0,1,215.5,70.895a320.937,320.937,0,0,1-49.551,16.137c-6.387,1.315-12.94,2.729-19.594,2.286-5.131-.952-9.676-3.6-14.307-5.823-5.165-2.653-10.209-5.505-15.23-8.391C77.064,51.663,37.6,26.206,0,.114" fill="#fec89a"/>
    <path id="Tracé_988" data-name="Tracé 988" d="M1.65,161.651q27.941,11.226,55.573,23.165c17.236,7.433,34.336,15.5,52.409,20.72a16.323,16.323,0,0,0,3.738.644l.147.107c8.24,5.959,16.777,11.537,25.418,16.9,21.67,13.037,44.3,25.518,69.09,31.332a85.18,85.18,0,0,0,15.085,2.052v.2a75.552,75.552,0,0,1-15.283-1.255c-34.071-6.634-67.554-27.617-94.959-48.385l.324.11c-5.093-.687-9.695-2.866-14.511-4.5C66.024,190.208,32.525,177.382,1.65,161.651" fill="#fec89a"/>
    <path id="Tracé_989" data-name="Tracé 989" d="M56.665,136.735c2.379,6.048,4.641,12.094,6.751,18.228a79.542,79.542,0,0,0,7.465,17.9c6.2,10.247,13.66,23.419,24.989,28.364l-.056.192c-6.558-1.3-11.867-6.117-16-11.134-6.266-7.652-9.888-16.924-13.834-25.87-2.83-5.858-5.624-11.781-7.316-18.1a77.843,77.843,0,0,1-2.193-9.531Z" fill="#fec89a"/>
    <path id="Tracé_990" data-name="Tracé 990" d="M211.552,218.362c2.226,16.635,7.51,34.843,21.363,45.415,4.759,3.209,10.078,5.7,14.921,8.81q9.936,6,19.627,12.388c6.471,4.247,12.816,8.693,18.953,13.43,4.5,3.658,9.556,7.032,13.089,11.719,6.327,7,15.236,11.309,24.182,14.229a87.5,87.5,0,0,0,22.664,3.831v.2c-16.986.586-36.534-4.043-48.507-16.919a24.2,24.2,0,0,0-3.8-4.136c-8.584-7.7-17.945-14.559-27.223-21.425-9.37-6.774-19.077-13.2-29.527-18.187-11.058-4.647-18.217-15.4-21.869-26.459a78.663,78.663,0,0,1-4.073-22.887l.2-.009" fill="#fec89a"/>
    <path id="Tracé_991" data-name="Tracé 991" d="M334.661,268.234c2.37-.937,4.053-3.458,3.156-5.977-.825-2.3-3.071-4.1-4.666-5.966-7.142-7.49-26.184-24.945-33.961-32.347-4.206-6.363-5.464-14-6.411-21.382-1.911-18.322-1.071-36.839.789-55.132.268-7.7,5.183-15.126,12.519-17.858,3.454-1.241,7.006-2.363,10.426-3.64,15.3-5.884,36.616-14.058,45.982-28A17.593,17.593,0,0,0,365.4,87.64l.2-.018c.686,5.654-1.965,11.132-5.608,15.306-11.722,13.173-31.578,21.094-47.972,26.846-1.492.5-3.771,1.2-5.2,1.71a17.651,17.651,0,0,0-8.155,6.278,19.584,19.584,0,0,0-3.4,9.87c-.48,3.636-.889,7.281-1.282,10.927-1.51,14.554-2.455,29.358-.463,43.906,1.092,7.093,2.742,14.5,6.839,20.45,3.27,2.724,7.839,7.078,11.461,10.422,8.5,8.13,17.127,16.178,24.659,25.24,1.3,1.573,2.453,3.422,2.143,5.563a5.5,5.5,0,0,1-3.9,4.284l-.063-.19" fill="#fec89a"/>
    <path id="Tracé_992" data-name="Tracé 992" d="M510.35,106.04c-14.163-5.128-52.1,28.129-62.431,38.4-10.745,10.528-23.607,22.348-23.7,38.5-.038,9.2,4.83,18.073,11.76,23.916l.2.172a11.358,11.358,0,0,1,.588,5.783c-2.541,15.4-21.216,36.186-31.58,48.059-4.723,5.213-9.518,10.374-14.527,15.31-5.7,2.612-12.275.266-17.331-2.751-1.752-.923-2.944-2.653-4.794-3.4-4.534-1.675-13.224-2.6-16.281,1.877-1.014,1.553-.413,3.994.188,5.39,1.429,1.923,2.942,3.8,4.487,5.639,4.655,5.421,9.61,10.849,15.769,14.566a92.391,92.391,0,0,0,7.942,8.6,83.9,83.9,0,0,0,29.133,18.559c7.174,4.408,14.749,8.865,23.025,10.655,2.384.439,5.587.608,6.945-1.659a11.8,11.8,0,0,0,1.909-7.639,16.638,16.638,0,0,0-3.346-7.339c-3.348-4.542-7.666-8.424-11.916-12.273-3.782-5.972-1.462-13.685,1.08-19.655a78.978,78.978,0,0,1,10.367-16.382c6.1-11.955,18.577-34.175,32.073-37.877a10.986,10.986,0,0,1,7.629.783,19.209,19.209,0,0,0,4.115,2.115c10.475,4.117,21.487-1.764,28.338-9.871a58.975,58.975,0,0,0,6.86-9.408c4.119-7.626,7.823-15.494,11.17-23.489,8.7-21.454,18.792-50.64,10.591-73.315l.185-.074c8.777,22.944-.893,52.052-9.4,73.956-3.289,8.077-6.956,16.026-11.035,23.738a60.785,60.785,0,0,1-7.006,9.8c-7.314,8.764-19.017,14.993-30.41,10.56a20.72,20.72,0,0,1-4.317-2.193c-4.091-2.1-8.731-.216-12.239,2.344a51.476,51.476,0,0,0-9.807,9.862,145.384,145.384,0,0,0-14.861,23.979c-3.962,5.086-7.784,10.395-10.427,16.29-2.31,5.42-4.525,12.151-1.442,17.62a84.992,84.992,0,0,1,11.93,12.425A18.06,18.06,0,0,1,443.4,325.8a13.549,13.549,0,0,1-2.222,8.712,5.6,5.6,0,0,1-4.118,2.561c-8.637.806-20.771-6.835-28.006-11.321a78.674,78.674,0,0,1-20.232-11.331A91.279,91.279,0,0,1,372.293,298.2c-6.211-3.857-11.188-9.308-15.885-14.829-1.555-1.867-3.069-3.762-4.514-5.724-.809-1.872-1.277-4.177-.183-6.057,3.164-4.776,12.335-3.924,17.077-2.174,1.9.714,3.12,2.477,4.909,3.418,4.829,2.856,11.214,5.13,16.611,2.632,4.368-4.547,9.628-10.194,14.082-15.312,9.945-11.689,28.165-32.659,30.684-47.559a9.79,9.79,0,0,0-.426-4.736l.277.366c-7.459-6.206-12.534-15.487-12.444-25.3.163-16.677,13.26-28.827,24.416-39.559,13.818-12.846,28.545-25.115,45.434-33.723,4.25-2.042,8.69-4,13.433-4.474a8.878,8.878,0,0,1,4.676.686Z" fill="#f6ebd8"/>
    <path id="Tracé_993" data-name="Tracé 993" d="M357.1,269.226a23.023,23.023,0,0,1-4.489-3.266,7.547,7.547,0,0,0-4.54-3.012c-1.776-.383-3.565-.766-5.332-1.118-1.75-.425-3.5-.813-5.381-1.332l-.021-.2c4.235-1.715,8.916-.206,12.376,2.449a41.941,41.941,0,0,0,3.908,1.883,8.992,8.992,0,0,1,3.633,4.466Z" fill="#fec89a"/>
    <path id="Tracé_994" data-name="Tracé 994" d="M280.476,207.583c-4.953-8.391-7.943-17.75-10.05-27.2C269,174.9,267.17,169.535,265.944,164c-2.171-10.292-2.978-21.126-.465-31.422l.2.031a164.829,164.829,0,0,0,2.009,31.07c.919,5.532,1.648,11.158,3.364,16.516.914,2.98,2.209,6.14,3.35,9.051,2.2,6.031,4.266,12.1,6.258,18.249Z" fill="#fec89a"/>
    <path id="Tracé_995" data-name="Tracé 995" d="M220.585,190.791a24.086,24.086,0,0,1,9.121-2.551c2.38-.1,4.746.159,7.112-.163,7.014-1.024,14.984-.608,20.487,4.391l-.106.169a70.772,70.772,0,0,0-13.414-3.118c-3.07-.37-6.168-1.012-9.273-.633-3.072.511-6.047,1.472-9.174,1.71-1.546.175-3.1.345-4.7.387Z" fill="#fec89a"/>
    <path id="Tracé_996" data-name="Tracé 996" d="M286.671,298.025c.09-4.033,2.185-7.579,4.856-10.436,1.6-2.048,2.757-4.479,4.734-6.239a13.5,13.5,0,0,1,10.942-3.961l.022.2c-1.218.509-2.387.923-3.5,1.469-4.263,2.246-8.844,4.887-11.67,8.9-1.2,2.223-1.888,4.665-3.237,6.824-.61,1.1-1.224,2.206-1.959,3.3Z" fill="#fec89a"/>
    <path id="Tracé_997" data-name="Tracé 997" d="M297.958,309.937c-.046-3.8,1.7-7.194,3.952-10.106,1.306-2.071,2.045-4.5,3.643-6.414,2.214-3.019,6.2-5.359,9.988-4.371v.2a16.005,16.005,0,0,0-6.007,3.187,47.491,47.491,0,0,0-5.02,4.775c-2.712,2.579-2.8,6.492-4.579,9.613a27.635,27.635,0,0,1-1.784,3.17Z" fill="#fec89a"/>
    <path id="Tracé_998" data-name="Tracé 998" d="M314.129,320.511c-2.452-.98-1.771-4.609-.363-6.188.715-.868,1.658-1.452,2.378-2.192a5.719,5.719,0,0,0,1.839-3.885,32.053,32.053,0,0,1-.04-4.6c.186-2.058,1.633-5.366,4.259-4.6v.2a2.572,2.572,0,0,0-1.741,1.877c-.608,2.166-.354,5.218-.9,7.445-.513,1.634-1.989,2.719-2.926,3.992a13.877,13.877,0,0,0-1.468,2.68c-.786,1.7-1.933,3.227-.925,5.111l-.11.167" fill="#fec89a"/>
    <path id="Tracé_999" data-name="Tracé 999" d="M294.594,161.925c15.488-13.077,32.619-25.267,52.222-31.218a80.54,80.54,0,0,1,12.031-2.291,54.61,54.61,0,0,0,11.668-3.233c6.477-2.6,12.412-7.071,15.417-13.468l.326-.677a4.171,4.171,0,0,1,1.794-2c6.161-3.155,16.824-3.455,23.111-.58a7.767,7.767,0,0,0,6.511-.412,41.815,41.815,0,0,0,5.13-2.991c1.358-.805,3.116-2.054,4.892-1.758,4.667,1.188,8.536,4.023,12.434,6.665,2.067,1.575,4.307,3.116,5.824,5.352a5.128,5.128,0,0,0,.756,1.136c2.067,2.123,4.856,3.467,7.291,5.234,1.415,1.073,3.369,2.306,3.442,4.3a16.875,16.875,0,0,0,1.413,6.563l-.178.09a19.893,19.893,0,0,1-2.057-7.264,8.717,8.717,0,0,0-3.177-2.861c-2.761-1.853-6.13-3.085-8.351-5.731a7.97,7.97,0,0,0-1.3-1.721,50.051,50.051,0,0,0-9.784-6.828,27.064,27.064,0,0,0-6.612-2.891,1.823,1.823,0,0,0-.988.144c-4.524,2.17-8.838,6.672-14.456,5.416a10.354,10.354,0,0,1-2.324-.889c-4.752-1.958-10.192-1.843-15.227-1.2a17.384,17.384,0,0,0-5.538,1.591,2.442,2.442,0,0,0-1.237,1.3c-3.286,6.875-9.922,11.48-16.848,14.124a65.342,65.342,0,0,1-11.817,3.216c-8.127.944-15.721,3.833-22.968,7.406a221.052,221.052,0,0,0-21.141,11.911c-6.865,4.314-13.558,8.92-20.13,13.709Z" fill="#fec89a"/>
    <path id="Tracé_1000" data-name="Tracé 1000" d="M392.05,100.955a8.067,8.067,0,0,1,.026-5.426c.339-.859.927-1.621,1.3-2.433.778-1.641,1.041-3.567,2.149-5.071.945-1.378,2.329-2.577,3.376-3.815.291-.419.641-.739.393-1.122a1.424,1.424,0,0,0-.478-.353v-.2a1.433,1.433,0,0,1,.791-.028c1.008.222,1.018,1.754.708,2.4-1.189,3.512-5.169,4.921-6.336,8.421-.36,2.643-.5,5.07-1.725,7.63h-.2" fill="#fec89a"/>
    <path id="Tracé_1001" data-name="Tracé 1001" d="M412.23,36.035a46.607,46.607,0,0,0-1.541,10.646,6.058,6.058,0,0,0,.9,3.139,9.821,9.821,0,0,1,1.339,3.684c.129,1.32.026,2.525.159,3.634a45.031,45.031,0,0,0,1.551,7.153l-.035.158c-1.761,7.065-10.491,10.326-16.394,13.23a200.342,200.342,0,0,1-30.121,10.364c-6.684,1.738-15.019,3.934-21.213-.415-3.059-2.287-3.961-6.472-3.12-10.009l.2.039c-.757,14.022,14.7,10.986,23.583,8.325,6.059-1.632,14.48-3.807,20.389-5.6,8.09-2.489,23.138-6.815,25.075-16.205l.03.391a28.991,28.991,0,0,1-1.8-10.911c-.089-1.782-1.352-3.292-1.76-5-.487-3.162.434-6.264,1.326-9.244.371-1.166.77-2.319,1.245-3.446Z" fill="#fec89a"/>
    <path id="Tracé_1002" data-name="Tracé 1002" d="M413.871,64.245c2.449,1.941,5.59,1.994,8.452,1.148,1.572-.543,3.3-1.126,4.985-.569,1.7.381,2.787,1.826,4.007,2.9a11.861,11.861,0,0,0,5.845,3c1.494.189,3.23.067,4.654.823a85.865,85.865,0,0,0,14.839,6.535c8.745,2.964,17.741,4.854,27.08,4.454l.03.2c-12.337,3.04-25.47-.774-36.217-7.033-1.365-.765-2.684-1.608-4.02-2.415a8.257,8.257,0,0,0-4.112-1.739,13.555,13.555,0,0,1-10.941-4.082,4.44,4.44,0,0,0-3.583-1.092c-3.6,1.12-8.617,1.444-11.16-1.987l.141-.141" fill="#fec89a"/>
    <path id="Tracé_1003" data-name="Tracé 1003" d="M425.555,47.686a7.735,7.735,0,0,1-.012,4.044,13.081,13.081,0,0,0-.735,1.909c-.232,1.908.7,3.853.981,5.7a5.88,5.88,0,0,0,1.366,3.219l-.063.189c-2.521.17-3.793-2.92-3.6-5.038-.057-1.406.708-2.738.672-4.125-.154-1.355-.515-2.773.112-4.1a5.578,5.578,0,0,1,1.084-1.848Z" fill="#fec89a"/>
    <path id="Tracé_1004" data-name="Tracé 1004" d="M139.087,134.322c-7.169,12.028-11.27,27.924-4.013,40.789a51.926,51.926,0,0,0,11.468,12.921c6.746,5.763,15.126,8.721,22.177,14.07a19.785,19.785,0,0,1,5.663,7.126,20.3,20.3,0,0,0,1.928,3.666c7.027,8.718,24.771,11.4,35.5,12.965l-.01.2a91.835,91.835,0,0,1-17.453-1.941c-8.389-1.949-18.7-5.009-21.861-14.025-3.544-8.117-12.753-11.092-19.431-16.153a83.24,83.24,0,0,1-13.279-11.473c-4.129-4.23-7.849-9.065-9.339-14.9-3.013-11.67,1.426-24.092,8.49-33.358l.161.118" fill="#fec89a"/>
    <path id="Tracé_1005" data-name="Tracé 1005" d="M282.134,185.9c-2.289-8.886-2.648-18.082-2.262-27.2-.1-9.14-.829-18.373,1.227-27.386,1.414-5.813,3.756-12.537,9.41-15.46l.1.172c-6.591,5.557-7.6,16.512-8.887,24.592-.655,5.98-1.48,12.03-1.2,18.069.4,6.04,1.31,12.03,1.488,18.09.155,3.022.3,6.046.323,9.1Z" fill="#fec89a"/>
    <path id="Tracé_1006" data-name="Tracé 1006" d="M403.717,17.642c.214-3.133,1.963-5.691,4.038-7.879,1.652-2.522,2.591-5.554,5.048-7.512,1.55-1.293,4.085-2.477,6.018-1.319l-.048.194a5.391,5.391,0,0,0-2.511,1,41.736,41.736,0,0,0-4.075,3.654c-1.288,1.4-2.985,2.6-3.887,4.329-1.046,2.781-2.162,5.51-4.4,7.618l-.182-.083" fill="#fec89a"/>
    <path id="Tracé_1007" data-name="Tracé 1007" d="M392.05,16.022a2.278,2.278,0,0,1-.658-2.3c.163-.375.521-.719.633-1.084a2.067,2.067,0,0,0-.03-1.166,3.5,3.5,0,0,1,.225-2.457,2.472,2.472,0,0,1,2.265-1.38l.109.168c-.3,1.323-.217,1.981-.889,2.972-.258.62-1.107,1.195-1.041,1.95a5.574,5.574,0,0,0,.39,1.133,1.849,1.849,0,0,1-.117,1.071,2.957,2.957,0,0,1-.687,1.085Z" fill="#fec89a"/>
    <path id="Tracé_1008" data-name="Tracé 1008" d="M535.458,74.365c-2.927,6.929-7.262,17.818,1.7,21.834a114.478,114.478,0,0,0,11.8,4.106c4.327,1.314,7.641,1.36,11.094-1.991l.151.132a8.58,8.58,0,0,1-5.078,4.2c-4.5.984-8.8-.785-12.8-2.484a32.4,32.4,0,0,1-5.721-3.022,13.46,13.46,0,0,1-4.853-17.467,19.35,19.35,0,0,1,3.548-5.425Z" fill="#fec89a"/>
    <path id="Tracé_1009" data-name="Tracé 1009" d="M463.664,69.294c-.616-2.854.293-5.265,1.614-7.7.94-3.436.915-7.483,4-9.911a3.123,3.123,0,0,1,2.811-.791v.2a3.889,3.889,0,0,0-1.648,1.652c-.8,1.406-1.471,2.915-2.286,4.353-.7,1.542-1.928,2.967-2.258,4.677-.217,1.726-.093,3.51-.844,5.147a11.4,11.4,0,0,1-1.192,2.409Z" fill="#fec89a"/>
    <path id="Tracé_1010" data-name="Tracé 1010" d="M468.681,124.332c-5.255-4.95-9.1-11.066-12.4-17.419-3.744-6.112-8.121-11.9-10.564-18.724-1.542-4.485-2.862-9.684-1.1-14.3l.193.053c-.439,4.72,1.256,9.159,2.9,13.488,1.427,3.787,3.933,9.189,5.67,12.922,2.837,6.606,8.063,11.661,11.754,17.749,1.284,1.993,2.551,4,3.7,6.1Z" fill="#fec89a"/>
    <path id="Tracé_1011" data-name="Tracé 1011" d="M440.518,92.7c-.438,1.544-.317,2.875-.651,4.371a12.586,12.586,0,0,0-.572,2.271c-.136,1.564.706,3.057.949,4.567a16.89,16.89,0,0,1,.3,7.018l-.2.044a12.215,12.215,0,0,1-1.791-4.473c-.54-2.369.179-4.776.091-7.146-.306-1.592-.789-3.262,0-4.857a3.433,3.433,0,0,1,1.726-1.936Z" fill="#fec89a"/>
    <path id="Tracé_1012" data-name="Tracé 1012" d="M447.157,89.384a24.822,24.822,0,0,1-11.506,4.506,76.668,76.668,0,0,1-12.4-.464c-4.126-.365-7.973-2.207-11.768-3.727-3.726-1.62-7.415-3.324-11.034-5.3l.066-.189a62.746,62.746,0,0,1,11.79,3.516c5.528,2.3,10.9,5.782,17.125,5.482a98.275,98.275,0,0,0,17.635-4l.1.175" fill="#fec89a"/>
    <path id="Tracé_1013" data-name="Tracé 1013" d="M346.41,328.2c6.943,3.337,14.125,6.071,21.359,8.7,4.633,5.137,10.56,9.06,16.244,12.9,5.224,3.011,12.657,8.349,18.263,3.62l.152.13a6.931,6.931,0,0,1-4.487,2.926c-8.6,1.2-17.28-6.173-23.177-11.667-2.237-2.271-5.605-5.5-7.3-7.229a47.711,47.711,0,0,1-16.421-5.805,28.162,28.162,0,0,1-4.751-3.409Z" fill="#fec89a"/>
  </g>
</svg>
