<svg id="Groupe_126" data-name="Groupe 126" xmlns="http://www.w3.org/2000/svg" xmlns:xlink="http://www.w3.org/1999/xlink" width="244.343" height="540.076" viewBox="0 0 244.343 540.076">
  <defs>
    <clipPath id="clip-path">
      <rect id="Rectangle_118" data-name="Rectangle 118" width="244.343" height="540.076" fill="none"/>
    </clipPath>
  </defs>
  <g id="Groupe_125" data-name="Groupe 125" clip-path="url(#clip-path)">
    <path id="Tracé_1091" data-name="Tracé 1091" d="M221.114,193.686a8.552,8.552,0,0,1-3.422-2.75,19.586,19.586,0,0,0-1.128-1.917c-.907-1.15-2.441-1.645-3.534-2.567a14.357,14.357,0,0,1-4.4-4.833l.121-.159a10.753,10.753,0,0,1,4.007,2.04c1.817,1.333,2.695,3.534,4.271,5.067,1.2.839,2.6,1.512,3.327,2.889a6.641,6.641,0,0,1,.918,2.1Z" fill="#f8edeb"/>
    <path id="Tracé_1092" data-name="Tracé 1092" d="M211.706,212.742c.309-6.642,1.4-24.632-3.086-29.286a6.9,6.9,0,0,0-3.378-1.8,46.314,46.314,0,0,0-8.561-.97c-5.6-.139-12,1.356-15.181,6.354-3.978,6.266-1.883,14.167-.323,20.9,3.291,12.819,8.558,29.652,21.08,36.032a18.156,18.156,0,0,0,12.527,1.319l.076.185c-5.6,2.262-12.2.922-17.121-2.435-11.167-7.882-15.427-22.005-18.283-34.713-1.43-7.052-2.856-15.315,1.48-21.666,3.47-5.084,9.9-6.755,15.721-7.088a45.2,45.2,0,0,1,8.89.447,8.164,8.164,0,0,1,4.31,2.152c5.42,5.373,3.394,23.439,2.047,30.593l-.2-.027" fill="#f8edeb"/>
    <path id="Tracé_1093" data-name="Tracé 1093" d="M219.586,191.071c3.021,3.254,3.781,7.77,3.871,12.061.186,4.643-3.919,8.293-8.286,8.868l-.03-.1c4.782-2.091,8.786-6.433,7.743-11.948-.7-3.062-2.449-5.99-3.3-8.886" fill="#f8edeb"/>
    <path id="Tracé_1094" data-name="Tracé 1094" d="M217.886,189.31a10.359,10.359,0,0,1,8.229.8l1.492.779c1.008.458,2.034.863,3.094,1.281a11.146,11.146,0,0,1,7.213,10.794l-.2.045c-.572-.984-1.071-1.93-1.627-2.823-2.312-3.334-4.808-7.127-8.724-8.7-2.071-.55-4.242-.47-6.3-1.12-1.041-.245-2.086-.491-3.169-.856Z" fill="#f8edeb"/>
    <path id="Tracé_1095" data-name="Tracé 1095" d="M236.626,199.248a12.887,12.887,0,0,1,6.7,7.077,21.085,21.085,0,0,1,.854,4.894c.688,6.463-.684,13.829-6.081,17.982a6.7,6.7,0,0,0-2.155,3.858l-.2,0c-.935-3.467,2.394-6.054,3.9-8.639a34.189,34.189,0,0,0,3.546-8.473,10.826,10.826,0,0,0,.347-4.646c-1.206-4.536-4.007-8.33-7.018-11.884l.109-.167" fill="#f8edeb"/>
    <path id="Tracé_1096" data-name="Tracé 1096" d="M229.59,264.707a79.73,79.73,0,0,1,3.885-9.072,26.888,26.888,0,0,0,3.051-6.732,143.3,143.3,0,0,0,2.408-21.9l.2-.03a26.673,26.673,0,0,1,.446,14.989c-.68,3.288-2.252,6.31-3.213,9.5-1.11,4.927-3.038,9.636-6.608,13.354l-.167-.11" fill="#f8edeb"/>
    <path id="Tracé_1097" data-name="Tracé 1097" d="M217.449,308.06c1.956-6.069,5.019-11.589,8.087-17.125,1.829-3.785,2.743-7.956,4.019-11.933,1.283-4.941,3.129-9.909,3.013-15.046a6.229,6.229,0,0,0-.809-2.891l.15-.132c3.168,3.257,2.1,8.549,1.355,12.559-1.38,6.289-4.641,11.849-7.134,17.7-1.431,3.975-2.754,8.025-4.989,11.652a43.52,43.52,0,0,1-3.516,5.309Z" fill="#f8edeb"/>
    <path id="Tracé_1098" data-name="Tracé 1098" d="M213.94,324.741a12.857,12.857,0,0,1,1.68-4.914,21.52,21.52,0,0,0,1.491-2.15c.794-1.527.7-3.384,1.048-5.018.28-2.517,1.028-4.7.779-7.319l.175-.1a4.65,4.65,0,0,1,1.368,2.472c.995,3.828-1.36,6.921-2.773,10.206-.4,1.7-.621,3.513-1.764,4.939a8.554,8.554,0,0,1-1.831,1.981Z" fill="#f8edeb"/>
    <path id="Tracé_1099" data-name="Tracé 1099" d="M204.106,389.746c2.323-3.56,5.411-7,6.863-10.922.36-1.447.759-2.848,1.18-4.262a74.9,74.9,0,0,0,3.953-17.2l.8-8.778c.418-8.648,1.413-17.647-1.806-25.9l.172-.1c3.458,4.978,4.123,11.374,4.179,17.281.032,8.979-2.356,17.643-4.154,26.355-1.254,5.692-1.179,12.435-4.915,17.158a43,43,0,0,1-6.129,6.506Z" fill="#f8edeb"/>
    <path id="Tracé_1100" data-name="Tracé 1100" d="M165.908,376.111c1.637,1.639,2.866,3.574,4.423,5.262,2.978,2.378,6.806,3.266,10.482,4.058l.009.1c-4.029.97-7.861-1.241-10.7-3.911a10.2,10.2,0,0,1-4.3-5.459l.087-.049" fill="#f8edeb"/>
    <path id="Tracé_1101" data-name="Tracé 1101" d="M174.516,425.531a92.33,92.33,0,0,0,.577-16.216,26.02,26.02,0,0,0-15.222-20.653l.034-.094c9.9,2.6,14.468,11.1,15.509,20.7.923,5.291,1,11.349-.9,16.26" fill="#f8edeb"/>
    <path id="Tracé_1102" data-name="Tracé 1102" d="M211.428,380.328c1.121,3.038.185,6.19-1.242,8.9-.728,1.883-.771,4.017-1.571,5.882a15.453,15.453,0,0,1-5.317,7.367l-.161-.118a43.782,43.782,0,0,1,3.763-8.042c.418-.779,1.045-1.809,1.506-2.548a9.784,9.784,0,0,0,1.4-5.7,27.52,27.52,0,0,1,1.422-5.74Z" fill="#f8edeb"/>
    <path id="Tracé_1103" data-name="Tracé 1103" d="M208.4,394.066c3.555,5.533-1.4,14.522-4.93,19.075l.068-.29a65.121,65.121,0,0,0,1.372,9.739,184.079,184.079,0,0,1,3.353,24.346c.129,1.631.178,3.289.355,4.9l-.189.066a95.145,95.145,0,0,1-3.813-19.351c-.883-6.543-.656-13.224-1.96-19.713,2.178-4.472,4.5-9.037,5.665-13.879a8.877,8.877,0,0,0-.1-4.794Z" fill="#f8edeb"/>
    <path id="Tracé_1104" data-name="Tracé 1104" d="M208.03,448.812c6.471,9.768,13.365,19.852,19.444,29.8.576,7.255-2.123,14.274-6,20.251-4.481,6.883-10.869,12.477-17.641,17.023-19.176,12.054-60.67,34.021-81.869,19.27a53.535,53.535,0,0,1-5.181-4.869c-9.653-10.113-18.966-21.117-24.174-34.263-1.814-4.349-2.271-9.253-2.517-13.865a148.838,148.838,0,0,0-4.522-27.38l.189-.065a132.114,132.114,0,0,1,5.768,27.3c.293,2.309.392,4.681.79,6.86,1.295,6.749,4.785,12.818,8.471,18.568a161.559,161.559,0,0,0,19.884,23.891c5.459,5.948,13.982,7.289,21.771,7.028,20.76-1.165,40.611-10.254,57.888-21.448,9.444-6.274,18.25-14.5,22.9-25a28.1,28.1,0,0,0,2.68-13.07c-3.937-5.9-9.267-15.228-13.588-22.322l-4.467-7.6Z" fill="#f8edeb"/>
    <path id="Tracé_1105" data-name="Tracé 1105" d="M191.228,259.377a3.2,3.2,0,0,1-1.129-2.291c-.35-.719-1.257-1.175-1.754-1.706a6.515,6.515,0,0,0-1.2-1.025v-.1a1.832,1.832,0,0,1,1.887.31c.807.567.9,1.583,1.349,2.365a2.411,2.411,0,0,1,.94,2.416l-.1.031" fill="#f8edeb"/>
    <path id="Tracé_1106" data-name="Tracé 1106" d="M188.738,433.176a48.479,48.479,0,0,1,7.544,9.9c3.2,4.526,6.924,8.808,8.788,14.124a7.314,7.314,0,0,1,.509,4.17l-.1-.023c-.1-2.73-1.842-5.1-3.066-7.462-1.331-2.395-2.755-4.752-4.135-7.15-2.671-4.809-7.205-8.713-9.542-13.56" fill="#f8edeb"/>
    <path id="Tracé_1107" data-name="Tracé 1107" d="M171.148,437.187c2.908,5.008-1.036,9.963-4.286,13.621a29.829,29.829,0,0,1-12.671,8.012l-.043-.091c1.548-1.091,3.2-1.934,4.751-2.993,3.561-2.362,7.535-4.534,10.083-8.053,1.879-3.068,2.985-6.833,2.078-10.449l.088-.047" fill="#f8edeb"/>
    <path id="Tracé_1108" data-name="Tracé 1108" d="M168.316,433.037c-5.259,6.042-12.742,9.406-20.084,12.187a59.819,59.819,0,0,1-29.914,4.046c1.549-.408,4.856-.088,6.736-.333a93.629,93.629,0,0,0,23.057-4.043c7.351-2.655,14.052-7.372,20.205-11.857" fill="#f8edeb"/>
    <path id="Tracé_1109" data-name="Tracé 1109" d="M161.756,454.581c1.1,3.532-2.584,6.089-5.509,7.027a40.327,40.327,0,0,1-6.009,2.145,29.528,29.528,0,0,1-9.5.788c3.859-1.174,8.332-1.327,12.389-2.273a11.577,11.577,0,0,0,5.555-2.694c1.544-1.259,2.964-2.832,2.975-4.965Z" fill="#f8edeb"/>
    <path id="Tracé_1110" data-name="Tracé 1110" d="M225.168,489.321a138.321,138.321,0,0,1-9.719-14.3c-3.254-4.746-6.951-9.2-10.367-13.814-1.723-2.294-3.412-4.615-5.288-6.782a7.622,7.622,0,0,0-2.1-1.858l.02-.1c1.857.644,3.142,2.315,4.5,3.658a102.346,102.346,0,0,1,10.31,13.913c4,6.5,9.557,12.419,12.652,19.275" fill="#f8edeb"/>
    <path id="Tracé_1111" data-name="Tracé 1111" d="M86.576,458.159a84.21,84.21,0,0,1-9.69-11.806,96,96,0,0,0-8.694-12.546,112.42,112.42,0,0,1-12.918-18.941c-1.116-2.3-2.425-4.659-2.674-7.251l.2-.023c1.61,3.888,5.8,9.106,8.107,12.738,2.783,4.243,5.577,8.479,8.18,12.845,3.759,6.7,9.512,11.9,13.622,18.358,1.415,2.113,2.8,4.248,4.027,6.505Z" fill="#f8edeb"/>
    <path id="Tracé_1112" data-name="Tracé 1112" d="M91.693,434.788c-7.92-3.645-14.271-9.69-20.45-15.686a86.407,86.407,0,0,1-19.8-26.533l.088-.048q1.031,1.537,2.018,3.09a162.393,162.393,0,0,0,17.938,23.242c6.056,6.042,13.476,10.963,20.2,15.935" fill="#f8edeb"/>
    <path id="Tracé_1113" data-name="Tracé 1113" d="M55.305,413.552c-4.476-2.944-7.85-7.071-10.881-11.4-4.066-4.616-8.884-8.644-11.968-14.064a22.288,22.288,0,0,1-2.986-7.436l.19-.061c2.7,4.506,6.048,8.407,9.011,12.713,2.095,2.774,3.808,5.9,6.239,8.42,2.5,2.439,5.261,4.629,7.392,7.441a42.215,42.215,0,0,1,3.145,4.245Z" fill="#f8edeb"/>
    <path id="Tracé_1114" data-name="Tracé 1114" d="M25.123,332.955c-.484,6.839-1.554,13.544-2.167,20.349.1,9.011,2.711,17.892,6.085,26.181.907,2.056,1.952,4.053,3.06,6.076l-.158.122c-8.885-8.893-9.832-20.512-9.635-32.38-.288-4.587-.436-9.25.625-13.77a34.307,34.307,0,0,1,2-6.63Z" fill="#f8edeb"/>
    <path id="Tracé_1115" data-name="Tracé 1115" d="M76.795,336a13.441,13.441,0,0,0-3.475-1.324c-.273-.023-.508.023-.529.1-.055.059-.25.633-.318.783-1.1,3.007-2.818,5.738-3.932,8.738l-.313-.147c.741-1.49,1.3-3.073,1.905-4.618a57.15,57.15,0,0,0,2.907-9.441c.222-1.574.429-3.316-.587-4.664l.069-.072c4.039,4.2-1.618,14.716-3.988,18.957l-.313-.147c1.411-3.057,2.2-6.367,3.669-9.4a1.828,1.828,0,0,1,.293-.51,1.3,1.3,0,0,1,1.252-.294,9.218,9.218,0,0,1,3.416,1.956Z" fill="#f8edeb"/>
    <path id="Tracé_1116" data-name="Tracé 1116" d="M74.547,317.558A31.555,31.555,0,0,1,69.189,328.9c-3.437,5.825-8.363,12.614-15.822,12.721l-.012-.1a18.583,18.583,0,0,0,7.263-3.656,36.058,36.058,0,0,0,8.3-9.135c1.986-3.615,3.51-7.788,5.634-11.173" fill="#f8edeb"/>
    <path id="Tracé_1117" data-name="Tracé 1117" d="M112.461,293.173a7.289,7.289,0,0,0,3.541-.339,87.227,87.227,0,0,0,10.252-3.875c3.588-1.986,7.121-4.049,10.529-6.282,4.947-3.353,10.4-6.909,12.85-12.566,2.681-6.188-2.469-11.739-7.911-13.96l.953-.7a49.516,49.516,0,0,1,.358,7.182c-.141,2.982-.33,6.414-2.205,9.054a4.948,4.948,0,0,1-2.676,1.718c-.818.286-1.694.605-2.519.867-5.351,1.6-13.608,4.27-17.623-1.291-2.937-5.286-1.013-13.995,5.506-15.308l.043.195c-4.646,1.6-6.209,6.771-5.224,11.213,1.255,8.03,11.285,4.81,16.642,3.167l3.3-1.073a3.522,3.522,0,0,0,1.737-2.024c1.716-4.539,1.427-9.936,1.243-14.779,17.1,8.624,8.62,21.518-3.487,29.773-5.562,3.706-11.451,6.951-17.966,8.548-2.389.507-5.033,1.5-7.436.654l.09-.179" fill="#f8edeb"/>
    <path id="Tracé_1118" data-name="Tracé 1118" d="M78.268,267.362c2.121-2.245,5.459-2.807,8.306-3.649,8.811-2.247,17.89-2.57,26.922-2.942l-.232.124c1.755-1.658,4.242-1.994,6.457-2.7a125.294,125.294,0,0,1,19.987-3.6c7.4-4.033,14.432-11.613,12.981-20.658a25.613,25.613,0,0,0-2.955-8.374l.169-.108a22.266,22.266,0,0,1,3.971,8.261c2.446,9.748-5.088,18.751-13.449,22.78-4.591.381-9.192.882-13.781,1.4a54.607,54.607,0,0,0-10.041,1.881,6.654,6.654,0,0,0-2.831,1.511l-.1.113-.134.011c-5.965.542-11.877,1.708-17.823,2.385-5.15.729-10.392,1.173-15.377,2.687a5.43,5.43,0,0,0-1.916,1.007Z" fill="#f8edeb"/>
    <path id="Tracé_1119" data-name="Tracé 1119" d="M87.987,305.039c4.065-1.711,8.329-2.331,12.635-2.956,2.81-.675,5.285-2.267,7.865-3.5a96.2,96.2,0,0,0,11.014-6.432l.151.132c-3.052,5.186-8.939,8.023-14.63,9.279-4.375.706-8.139,3.32-12.6,3.621a19.134,19.134,0,0,1-4.413.052Z" fill="#f8edeb"/>
    <path id="Tracé_1120" data-name="Tracé 1120" d="M53.578,320.22c5.6-1.049,11.215-1.217,16.851-1.73,3.709-.58,7.145-2.316,10.5-3.879,4.945-2.532,9.394-5.634,12.481-10.465l.184.077C92.228,310,87.1,314.29,81.695,316.327c-3.554,1.527-7.431,1.885-11.139,2.8-3.666,1.028-7.415,2-11.269,1.855a27.163,27.163,0,0,1-5.716-.56Z" fill="#f8edeb"/>
    <path id="Tracé_1121" data-name="Tracé 1121" d="M22.518,362.22c-2.584-.306-4.282-2.679-5.481-4.757-1.536-2.878-1.524-6.219-2.385-9.3a42.38,42.38,0,0,1-1.368-21.2l.2,0a43.847,43.847,0,0,1,.725,4.7c.544,4.674.718,9.311.891,14.024a19.065,19.065,0,0,0,2.557,8.913c1.33,2.642,2.366,5.656,4.9,7.422l-.036.2" fill="#f8edeb"/>
    <path id="Tracé_1122" data-name="Tracé 1122" d="M17.86,293.477c5.024-2.836,10.151-5.35,15.176-7.977,2.131-1.131,4.5-2.11,6.121-3.939.9-1.685,2.7-2.544,4.215-3.442a108.961,108.961,0,0,1,19.794-8.637c5.521-1.673,11.062-3.4,16.861-3.811l.014.2c-2.338.6-5.778,1.962-8.113,2.766-4.025,1.461-12.141,4.268-16.206,5.6l-8.09,2.826c-2.538,1.016-5.47,2-7.373,3.982a9.773,9.773,0,0,1-2.844,3.345A44.3,44.3,0,0,1,26.1,290.819a64.158,64.158,0,0,1-8.169,2.843Z" fill="#f8edeb"/>
    <path id="Tracé_1123" data-name="Tracé 1123" d="M42.778,308.89a22.508,22.508,0,0,1-3.885-7.54c-1.538-3.45-3.708-6.837-3.632-10.771a3.468,3.468,0,0,1,1.048-2.712l.07.071a3.782,3.782,0,0,0-.331,2.6,44.359,44.359,0,0,0,1.326,5.35,38.944,38.944,0,0,0,1.815,5.326,37.6,37.6,0,0,1,3.676,7.623l-.087.049" fill="#f8edeb"/>
    <path id="Tracé_1124" data-name="Tracé 1124" d="M38.179,308.853a4.943,4.943,0,0,1-1.958-1.842A6.853,6.853,0,0,0,34.86,304.7c-1.188-1.327-2.191-3.418-1.189-5.133l.1.025a9.64,9.64,0,0,0,.711,2.413,18.529,18.529,0,0,0,1.454,3.586,7.784,7.784,0,0,1,2.32,3.2l-.074.067" fill="#f8edeb"/>
    <path id="Tracé_1125" data-name="Tracé 1125" d="M22.949,312.587c.824-2.448,1.818-4.742,2.743-7.1,1.873-3.354.531-7.78,1.516-11.493.721-3.957,3.6-8.014,7.714-8.755l.081.183a15.817,15.817,0,0,0-4.524,5.731c-1.521,3.224-3.066,7.048-3.138,10.766a10.8,10.8,0,0,1-1.648,7.74,12.859,12.859,0,0,1-2.58,3.039Z" fill="#f8edeb"/>
    <path id="Tracé_1126" data-name="Tracé 1126" d="M13.2,342.956a8.39,8.39,0,0,1-4.471-2.7c-4.638-4.652-5.184-11.427-6.458-17.523A71.683,71.683,0,0,1,1.1,292.345l.2.009c.431,3.392.469,6.743.68,10.128.3,6.152.3,12.3.759,18.463a32.7,32.7,0,0,0,3.207,11.234c1.461,3.2,2.889,6.532,5.367,9.091a9.144,9.144,0,0,0,1.937,1.491l-.043.2" fill="#f8edeb"/>
    <path id="Tracé_1127" data-name="Tracé 1127" d="M108.091,225.005c3.059-1.436,6.612-1.313,9.921-1.578,9.657-.48,20.3.6,29.932,1.732l.225.024.061.2c1.614,5.862,3.769,14.1-1.618,18.636-6.415,4.022-21.181,8.864-27.234,2.514a7.066,7.066,0,0,1-1.569-3.232,27.022,27.022,0,0,1-.454-9.774,36.183,36.183,0,0,1,1.958-8.347l.191.06a39.418,39.418,0,0,0-.2,16.6,6.963,6.963,0,0,0,1.553,3.372c2.863,2.763,7.363,2.343,11.173,1.949a42.732,42.732,0,0,0,8.069-1.932c2.464-.951,5.284-1.659,7.073-3.693,3.282-4.407,2.057-10.983.435-15.924l.286.22c-3.317-.2-6.65-.219-9.973-.3-8.284-.084-16.577-.829-24.861-.84a16.573,16.573,0,0,0-4.866.5Z" fill="#f8edeb"/>
    <path id="Tracé_1128" data-name="Tracé 1128" d="M72.86,227.154A27.24,27.24,0,0,1,82.7,223.6c2.613-.309,5.228-.317,7.812-.8,7.669-1.712,15.933-1.945,23.3,1.14l-.044.2c-5.226-.168-10.268-.435-15.429-.608-3.415.014-6.923-.413-10.306.279a117.325,117.325,0,0,1-15.1,3.537l-.074-.186" fill="#f8edeb"/>
    <path id="Tracé_1129" data-name="Tracé 1129" d="M22.595,237.52c5.811-3.86,12.469-6.007,19.211-7.519,10.787-3.494,22.624-7.894,33.88-3.8l-.046.194c-6.869-.555-13.516.44-20.257,1.409-3.978.7-9.622,1.44-13.384,2.816-4.269,1.634-8.366,3.678-12.749,5.028-2.164.732-4.333,1.454-6.571,2.053Z" fill="#f8edeb"/>
    <path id="Tracé_1130" data-name="Tracé 1130" d="M4.395,296.809a55.146,55.146,0,0,1-4.14-25.816c-.069-12.013,1.864-24.71,13.2-31.311a27.13,27.13,0,0,1,8.326-3.013l.055.194A31.377,31.377,0,0,0,8.366,246.889,41.012,41.012,0,0,0,.9,270.993c.15,5.055,1.619,12.1,2.249,17.17.444,2.856.952,5.7,1.432,8.586Z" fill="#f8edeb"/>
    <path id="Tracé_1131" data-name="Tracé 1131" d="M24.052,259.39a9.941,9.941,0,0,1-3.273-4.339c-1.365-2.019-3.237-3.859-3.519-6.414a3.366,3.366,0,0,1,.222-1.895l.1.025a10.651,10.651,0,0,0,1.153,3.265,42.853,42.853,0,0,0,2.318,4.841,13.954,13.954,0,0,1,3.081,4.455l-.078.062" fill="#f8edeb"/>
    <path id="Tracé_1132" data-name="Tracé 1132" d="M18.134,266.164A20.389,20.389,0,0,1,13,259.258c-2.427-3.874-6.134-8.707-3.866-13.441l.093.036a11.076,11.076,0,0,0,.676,5.453,36.65,36.65,0,0,0,3.371,7.78c1.441,1.956,4.082,4.919,4.86,7.078" fill="#f8edeb"/>
    <path id="Tracé_1133" data-name="Tracé 1133" d="M12.255,266.809a2.815,2.815,0,0,1-2.475-1.236c-1.092-.636-2.6-.968-2.943-2.415a1.338,1.338,0,0,1,.128-1.068l.1.017a4.221,4.221,0,0,0,1.049,1.267c.616.538,1.09,1.485,1.842,1.925a3.487,3.487,0,0,1,2.343,1.419l-.042.091" fill="#f8edeb"/>
    <path id="Tracé_1134" data-name="Tracé 1134" d="M147.841,225.425c6.474-8.722,12.142-22.715.079-29.392l-3.363-1.861c-6.663-3.33-14.419-7.043-22-5.345a73.527,73.527,0,0,0-53.588-6.049c-4.525,1.1-9.094,2.014-13.671,2.768-8.9,1.7-18.549,2.127-26.251,7.221a25.154,25.154,0,0,0-8.319,10.65l-.186-.074a29.12,29.12,0,0,1,3.036-6.3c6.712-10.386,20.335-11.308,31.357-13.554,6.9-1.151,13.538-2.887,20.413-4.176,13.913-2.3,28.19.587,41.089,5.908,2.148.9,4.265,1.833,6.339,2.933l-.3-.022a19.471,19.471,0,0,1,7.927-.4A47.737,47.737,0,0,1,145.37,192.6c2.019,1.106,5.1,2.636,6.737,4.311,4.23,3.679,5.367,9.882,3.714,15.1a34.893,34.893,0,0,1-7.828,13.547Z" fill="#f8edeb"/>
    <path id="Tracé_1135" data-name="Tracé 1135" d="M153.289,199.386c.231,6.075-.339,15.694-7.07,18.14a5.32,5.32,0,0,1-3.142-.03l.137.023c-5.543-.425-11.088.181-16.628.38l-1.385.039a2.325,2.325,0,0,1-2.321-2.624c.213-4.232.449-8.485.6-12.706-.016-3.572.435-7.406-.983-10.755l.157-.123a5.315,5.315,0,0,1,.794,1.192,11.6,11.6,0,0,1,.944,2.689c1.423,6.4,1.142,13.058.464,19.523-.025.347-.216.946.355.98,2.3.058,4.633.205,6.926.369a83.954,83.954,0,0,0,11.09.166,4.34,4.34,0,0,0,2.576-.314c3.952-2.22,5.065-7.276,6.127-11.421.456-1.816.729-3.677,1.163-5.54Z" fill="#f8edeb"/>
    <path id="Tracé_1136" data-name="Tracé 1136" d="M16.221,239a28.65,28.65,0,0,1-9.565-21.216,23.248,23.248,0,0,1,9.93-20.892,40.49,40.49,0,0,1,14.43-6.519l.07.188a80.718,80.718,0,0,0-14.71,9.2C11.1,204.134,6.689,210.594,7.3,217.747a25.69,25.69,0,0,0,2.008,7.4,76.5,76.5,0,0,0,7.058,13.713Z" fill="#f8edeb"/>
    <path id="Tracé_1137" data-name="Tracé 1137" d="M139.935,191.087c-2.6,1.052-5.312.222-7.937.913-1.287.347-2.592.581-3.894.821a21.994,21.994,0,0,0-3.843.7l-.07-.072a4.222,4.222,0,0,1,1.762-1.115c2.547-1.066,5.314-.75,7.985-.985a13.09,13.09,0,0,1,5.991-.365l.006.1" fill="#f8edeb"/>
    <path id="Tracé_1138" data-name="Tracé 1138" d="M61.9,158.689C56.372,161.1,50.683,162.9,45.222,165.4A26.29,26.29,0,0,0,32.557,184.1a26.909,26.909,0,0,0-.193,2.93c-.081,1,.065,1.983.043,3.01l-.195.043a17.385,17.385,0,0,1,2.97-17.724c2.573-3.3,6.3-5.264,9.709-7.51a33,33,0,0,1,10.929-5.379,26.308,26.308,0,0,1,6.042-.975Z" fill="#f8edeb"/>
    <path id="Tracé_1139" data-name="Tracé 1139" d="M133.463,188.792c13.305-6.61,20.013-18.153,8.505-30.366-5.371-3.378-11.853-5.163-18.09-6.155a48.977,48.977,0,0,0-9.626-.5,55.126,55.126,0,0,0-9.651,1.494l-.068-.188c11.489-5.472,25.478-3.6,36.131,2.971,2.292,1.176,3.58,3.743,4.867,5.818a31.187,31.187,0,0,1,2.179,4.494,15.515,15.515,0,0,1,.864,10.048c-2.114,6.683-8.658,10.82-15.046,12.577l-.065-.189" fill="#f8edeb"/>
    <path id="Tracé_1140" data-name="Tracé 1140" d="M49.158,169.267a37.579,37.579,0,0,1,12.621-11.256c3.348-1.755,6.911-3.036,10.391-4.492a46.794,46.794,0,0,1,16.588-3.712c3.979-.789,10.442-.178,15.163.784,1.664.32,3.311.725,4.94,1.19l-.032.2c-6.607-.224-13.442-.882-19.992-.082a64.594,64.594,0,0,0-11.033.954,31.357,31.357,0,0,0-10.5,3.542c-2.848,1.56-6.521,4.3-9.243,6.125-3,2.142-5.894,4.443-8.747,6.877Z" fill="#f8edeb"/>
    <path id="Tracé_1141" data-name="Tracé 1141" d="M139.674,158.952c-1.787,2.352-1.234,5.633-.923,8.383l1.332,8.589a1.38,1.38,0,0,1-1.095,1.786c-2.048.03-5.75-.248-7.828-.373-2.171-.259-4.758-.028-6.611-1.406-4.885-4.33-8.58-14.578-1.192-18.362a21.4,21.4,0,0,1,13.434-1.3c1.041.337,4.048,1.136,2.883,2.679m-.145-.138c.531-.637-.147-1.233-.772-1.461-3.4-1.377-7.134-.139-10.519.705-2.051.571-3.916,1.081-5.412,2.488-3.818,3.871-.6,11.161,2.306,14.753a3.2,3.2,0,0,0,1.753.9,27.559,27.559,0,0,0,8.678.308c.669-.064,2.543-.23,3.188-.314a.265.265,0,0,0-.249.273c0,.021-.036-.15-.052-.216a32.712,32.712,0,0,1-.516-13.3,8.565,8.565,0,0,1,1.6-4.134" fill="#f8edeb"/>
    <path id="Tracé_1142" data-name="Tracé 1142" d="M144.7,408.6c-10.1,9.167-23.738,11.816-36.683,7.808-6.18-2-12.306-4.521-17.393-8.631-15.293-13.089-17.189-35.2-16.4-54.063a167.85,167.85,0,0,1,6.673-38.128c-1.814,12.291-4.207,25.508-4.547,38.231-.535,12.7-.115,25.726,4.1,37.824,5.122,14.23,13.849,19.648,28,23.18,12.942,3.464,25.175,1.523,36.131-6.381l.12.16" fill="#f6ebd8"/>
    <path id="Tracé_1143" data-name="Tracé 1143" d="M188.722,232.172c-.278,23.141-2.963,46.167-6.853,68.954-4.929,31.752-10.04,72.673-28.991,99.25A39.432,39.432,0,0,1,144.7,408.6l-.122-.158a43.55,43.55,0,0,0,7.473-8.656c6.341-9.594,10.307-20.494,13.854-31.383a446.264,446.264,0,0,0,11.36-44.634c3.214-14.836,5.094-30.545,6.443-45.69.175.04,4.5-46.358,5.011-45.91" fill="#f6ebd8"/>
    <path id="Tracé_1144" data-name="Tracé 1144" d="M151.091,401.936c-5.386-4.788-11.739-8.223-18.2-11.278a63.741,63.741,0,0,0-6.707-2.538,68.713,68.713,0,0,0-18.855-2.858,95.188,95.188,0,0,0-14.295.51c-4.453.34-9.81,1.354-14.213,2.08a86.3,86.3,0,0,1,9.334-2.347l4.772-.691a71.506,71.506,0,0,1,14.447-.491,77.075,77.075,0,0,1,16.6,2.81c2.238.638,4.712,1.29,6.908,2.1l2.284.78,2.221.946c5.737,2.635,11.766,6.209,15.706,10.978" fill="#f6ebd8"/>
    <path id="Tracé_1145" data-name="Tracé 1145" d="M157.918,1.045a42.513,42.513,0,0,1,36.033,16.549c8.634,10.541,14,24.634,11.494,38.323-2.439,13.72-10.965,25.766-22.024,33.971a6.1,6.1,0,0,0-2.866,4.922c-.3,3.193.64,6.455,1.656,9.551a89.628,89.628,0,0,1,2.326,10c.344,1.646.943,5.036,1.187,6.7a208.8,208.8,0,0,1,.992,60.946l-.2-.029a205.528,205.528,0,0,0,.9-27.04,249.6,249.6,0,0,0-2.8-30.267c-.52-2.97-1.2-7.015-1.857-9.956a87.461,87.461,0,0,0-2.418-9.769c-1.851-5.229-3.808-13.019,1.812-16.726,14.114-10.5,24.131-27.948,21.634-45.865-1-8.83-4.34-17.64-10.432-24.253A54.84,54.84,0,0,0,157.916,1.245l0-.2" fill="#f6ebd8"/>
    <path id="Tracé_1146" data-name="Tracé 1146" d="M160.029,1.459A55.427,55.427,0,0,0,125.69,9.007c-10.47,6.053-17.105,17.216-19.553,28.845-3.483,15.629,2.846,32,13.195,43.749l.987,1.114a7.532,7.532,0,0,1,2.132,4.628c.3,4.418-1.688,8.242-3.761,11.917-4.546,8.936-8.114,18.363-11.71,27.71-2.543,7.545-5.617,15.208-6.045,23.219l-.2.028c-.2-4.081.809-8.06,1.674-12.01a230.054,230.054,0,0,1,14.553-39.865,37.544,37.544,0,0,0,2.541-5.323c.883-2.58,1.539-5.5.106-7.864a26.227,26.227,0,0,0-1.86-2.169c-9.539-10.642-15.525-25.011-14.463-39.451,1.223-14.441,10.318-27.089,21.784-35.461a42.1,42.1,0,0,1,34.992-6.812l-.035.2" fill="#f6ebd8"/>
  </g>
</svg>
