<svg xmlns="http://www.w3.org/2000/svg" width="20.664" height="20.659" viewBox="0 0 20.664 20.659">
  <path id="Icon_awesome-instagram" data-name="Icon awesome-instagram" d="M10.329,7.271a5.3,5.3,0,1,0,5.3,5.3A5.288,5.288,0,0,0,10.329,7.271Zm0,8.74a3.444,3.444,0,1,1,3.444-3.444,3.45,3.45,0,0,1-3.444,3.444Zm6.749-8.957a1.235,1.235,0,1,1-1.235-1.235A1.233,1.233,0,0,1,17.078,7.054Zm3.508,1.254a6.114,6.114,0,0,0-1.669-4.329A6.154,6.154,0,0,0,14.588,2.31c-1.706-.1-6.818-.1-8.524,0A6.145,6.145,0,0,0,1.736,3.974,6.134,6.134,0,0,0,.067,8.3c-.1,1.706-.1,6.818,0,8.524a6.114,6.114,0,0,0,1.669,4.329,6.162,6.162,0,0,0,4.329,1.669c1.706.1,6.818.1,8.524,0a6.114,6.114,0,0,0,4.329-1.669,6.154,6.154,0,0,0,1.669-4.329c.1-1.706.1-6.813,0-8.519Zm-2.2,10.349a3.486,3.486,0,0,1-1.964,1.964c-1.36.539-4.587.415-6.09.415s-4.734.12-6.09-.415a3.486,3.486,0,0,1-1.964-1.964c-.539-1.36-.415-4.587-.415-6.09s-.12-4.734.415-6.09A3.486,3.486,0,0,1,4.239,4.514C5.6,3.974,8.826,4.1,10.329,4.1s4.734-.12,6.09.415a3.486,3.486,0,0,1,1.964,1.964c.539,1.36.415,4.587.415,6.09S18.922,17.3,18.382,18.657Z" transform="translate(0.005 -2.238)" fill="#f6ebd8"/>
</svg>
