<svg id="Groupe_47" data-name="Groupe 47" xmlns="http://www.w3.org/2000/svg" xmlns:xlink="http://www.w3.org/1999/xlink" width="1666.659" height="704.813" viewBox="0 0 1666.659 704.813">
  <defs>
    <clipPath id="clip-path">
      <rect id="Rectangle_27" data-name="Rectangle 27" width="1666.659" height="704.813" fill="#f6ebd8"/>
    </clipPath>
  </defs>
  <g id="Groupe_17" data-name="Groupe 17" clip-path="url(#clip-path)">
    <path id="Tracé_144" data-name="Tracé 144" d="M175.605,31.776c-70,0-127.654,63.137-127.654,153.049s55.594,158.54,133.145,158.54c54.221,0,91.971-35.69,107.07-75.5,1.373-3.425-9.615-8.236-10.988-4.8-13.72,34.311-45.979,67.942-90.591,67.942-28.82,0-51.47-10.988-64.51-24.022-21.277-21.277-35-52.849-35-120.791V175.216H281.989c8.236,0,10.982-2.059,10.982-10.988,0-67.255-49.417-132.452-117.365-132.452m66.576,131.772H86.386c0-45.3,18.531-80.3,37.743-99.514,13.047-13.041,30.892-20.59,48.737-20.59,23.336,0,39.8,6.863,52.842,19.9,17.845,17.838,28.827,46.672,28.827,92.65,0,6.863-2.745,7.55-12.354,7.55" transform="translate(265.487 175.932)" fill="#f6ebd8"/>
    <path id="Tracé_145" data-name="Tracé 145" d="M199.366,163.592c-37.743-14.413-65.2-33.625-65.2-69.314,0-30.2,23.342-50.1,53.535-50.1,36.376,0,59.026,26.768,66.569,69.321.693,2.745,2.746,4.118,6.184,4.118s6.177-2.059,6.177-4.118V41.435c0-2.752-1.373-4.125-4.8-4.125-4.118,0-5.491,1.373-6.184,4.125-2.745,8.916-5.484,12.348-8.916,12.348-4.8,0-7.55-2.745-14.413-6.863C217.9,38,204.17,32.506,184.952,32.506c-45.3,0-75.5,31.572-75.5,78.244,0,39.115,26.081,65.883,77.557,85.787,48.044,18.531,70.694,37.063,70.694,75.5,0,32.945-23.342,59.712-68.635,59.712-44.606,0-72.066-36.383-82.362-98.841,0-2.053-1.373-4.112-6.171-4.112-4.118,0-6.177,2.059-6.177,4.112V334.492c0,3.425,1.373,4.8,4.8,4.8,4.8,0,6.171-1.373,6.864-4.118,2.745-8.916,7.55-15.1,12.348-15.1,6.184,0,8.236,2.059,20.6,9.609,15.093,9.609,33.625,14.413,52.842,14.413,58.34,0,92.657-41.867,92.657-86.473,0-43.24-22.649-70.007-85.107-94.03" transform="translate(522.443 179.974)" fill="#f6ebd8"/>
    <path id="Tracé_146" data-name="Tracé 146" d="M433.272,34.328H325.522c-2.745,0-4.125.686-4.125,6.177q0,6.177,4.125,6.177c53.529,1.373,56.954,3.432,30.193,79.61l-58.34,166.776H294.63c-4.8-16.472-12.354-37.056-18.531-53.535L206.1,58.35c-4.118-10.3-4.118-11.668,6.171-11.668H251.4c3.425,0,4.8-.686,4.8-6.177s-1.373-6.177-4.118-6.177h-120.1c-2.745,0-4.118.686-4.118,6.177s1.373,6.177,4.118,6.177h25.4c10.3,0,11.668,1.373,15.786,11.668L276.1,326.012c2.065,4.112,2.745,5.484,6.87,5.484h1.373L247.958,433.069c-20.584,55.594-37.063,69.321-54.9,69.321-13.041,0-19.9-5.491-19.9-15.1,0-13.041,17.845-21.956,17.845-37.743,0-10.988-7.55-18.531-19.9-18.531-16.479,0-32.265,18.531-32.265,39.115,0,21.277,21.963,44.619,50.79,44.619s48.731-18.531,69.321-76.191L368.069,129.724c28.14-79.61,31.565-81.669,65.2-83.041q4.118,0,4.118-6.177c0-5.491-1.373-6.177-4.118-6.177" transform="translate(707.881 190.062)" fill="#f6ebd8"/>
    <path id="Tracé_147" data-name="Tracé 147" d="M336.577,33.068c-33.637,0-64.517,27.454-79.616,68.635L254.9,100.33c.686-5.491,2.745-27.454,2.745-34.317V52.972c0-10.3-1.372-11.668-11.661-11.668H185.58c-2.745,0-4.111.686-4.111,6.177s1.366,6.177,4.111,6.177h26.088c10.3,0,11.668,1.373,11.668,11.668V312.4c0,4.51-.32,7.236-1.477,8.955H179.41V336.42H313.928V321.353h-54.8c-1.163-1.719-1.478-4.445-1.478-8.955V148.368c8.923-65.883,40.495-101.573,72.06-101.573,13.041,0,19.9,6.863,19.9,14.413,0,10.3-10.289,15.786-10.289,28.14,0,10.982,8.236,17.845,19.211,17.845,15.1,0,26.768-16.472,26.768-32.945,0-24.022-17.839-41.181-48.724-41.181" transform="translate(993.328 183.086)" fill="#f6ebd8"/>
    <path id="Tracé_148" data-name="Tracé 148" d="M455.807,212.677c-5.2-4.255-11.936-6.144-18.584-7.138-19.446-2.9-40.926,1.647-58,11.23a65.038,65.038,0,0,0-24.931,24.48c-1.732,3.131-3.216,6.687-2.556,10.2.752,4,4.2,7.073,8.027,8.465,5.916,2.151,12.191,1.346,18.139-.046,19.107-4.484,45.423-19.8,65.046-10.511,4.831,2.281,8.792,6.909,9.145,12.237.346,5.19-2.608,9.975-5.622,14.211-13.949,19.616-32.134,36.684-54.084,46.56-32.631,14.681-75.406,10.694-101.481-15.381-21.27-21.277-35-52.849-35-120.791V175.216H450.819c8.236,0,10.982-2.059,10.982-10.982,0-67.255-49.411-132.458-117.359-132.458-70,0-127.654,63.144-127.654,153.049s55.594,158.54,133.145,158.54a112,112,0,0,0,74.256-27.807c19.486-17.211,38.932-43.371,41.841-69.674,1.327-12.008-.889-25.539-10.224-33.206M292.966,64.034c13.041-13.041,30.892-20.59,48.731-20.59,23.336,0,39.808,6.863,52.849,19.9,17.845,17.845,28.82,46.672,28.82,92.65,0,6.863-2.745,7.55-12.348,7.55H255.224c0-45.3,18.531-80.3,37.742-99.514" transform="translate(1200.276 175.932)" fill="#f6ebd8"/>
    <path id="Tracé_149" data-name="Tracé 149" d="M243.647,493.713V32.475q0-9.3.026-18.6h33.572a6.919,6.919,0,0,0,0-13.838H176c-2.007,0-4.027-.072-6.033-.007a90.937,90.937,0,0,0-18.512,2.379A60.252,60.252,0,0,0,134.112,9.27c-16.355,9.91-11.328,26.794,2.17,37.252A69.5,69.5,0,0,0,180.731,60.9c3.157-.111,6.55-.536,8.877-2.667,3.477-3.2,3.118-8.792,1.673-13.289a38.189,38.189,0,0,0-1.8-4.576,40.584,40.584,0,0,0-9.772-13c-4.262-3.791-9.007-6.079-14.237-8.171a4.977,4.977,0,0,1-3.118-3.255c-.444-2.366,1.8-2.111,3.347-2.066,6.707.242,13.426,0,20.139,0h15.5c.2.039.4.046.6.078,1.8.34,3.883.686,5.3,1.948,1.752,1.556,1.941,4.183,2.046,6.373.654,13.086.033,26.4.033,39.507V197.231c0,26.768,1.373,46.672,2.059,53.528l-2.059,1.379c-17.845-23.342-45.985-37.749-78.244-37.749C58.339,214.39,0,280.266,0,370.177S54.908,525.972,130.406,525.972c36.455,0,66.464-21.793,79.6-49.247v42.782h83.76V504.44H247.222c-3.013-1.281-3.576-4.216-3.576-10.727m-111.188,19.9c-21.957,0-43.233-8.236-57.647-22.643C50.79,466.946,39.122,434,39.122,370.177c0-59.026,13.72-96.089,37.743-120.1,14.413-14.413,32.945-23.329,56.28-23.329,29.513,0,57.653,15.779,76.864,46.659V446.355c-7.543,30.886-33.624,67.262-77.551,67.262" transform="translate(0 -0.001)" fill="#f6ebd8"/>
  </g>
</svg>
